<svg xmlns="http://www.w3.org/2000/svg" viewBox="0 0 800 800"
     style="background:#0f1117; border-radius:8px; font-family:system-ui,sans-serif;">
  <rect width="800" height="800" fill="#0f1117" rx="8"/>

  <text x="400.0" y="28" fill="#e2e4ed" font-size="15" font-weight="700" text-anchor="middle">Layer stack — isometric view</text>
  <text x="400.0" y="46" fill="#8b92ab" font-size="11" text-anchor="middle">
    35 sampled layers · 2,400 mm total height · ~10 mm per layer</text>

  <!-- Print bed -->
  <rect x="50" y="740" width="700" height="10" rx="3" fill="#1a1d27" stroke="#2d3348" stroke-width="0.5"/>
  <text x="400.0" y="764" fill="#8b92ab" font-size="10" text-anchor="middle">Print bed</text>

  <!-- Toolpath lines -->
    <polyline points="537.2,766.9 537.1,767.0" fill="none" stroke="#58a6ff" stroke-width="1.5" opacity="0.150"/>
    <polyline points="528.0,769.7 527.7,769.8 527.3,769.7 526.9,769.6" fill="none" stroke="#58a6ff" stroke-width="1.5" opacity="0.150"/>
    <polyline points="435.9,742.3 435.5,742.2 435.4,742.1 435.5,742.0" fill="none" stroke="#58a6ff" stroke-width="1.5" opacity="0.150"/>
    <polyline points="444.6,739.3 444.9,739.2 445.3,739.3 445.7,739.4" fill="none" stroke="#58a6ff" stroke-width="1.5" opacity="0.150"/>
    <polyline points="536.7,766.7 537.0,766.8" fill="none" stroke="#58a6ff" stroke-width="1.5" opacity="0.150"/>
    <polyline points="537.2,751.0 537.1,751.1" fill="none" stroke="#3fb950" stroke-width="1.5" opacity="0.164"/>
    <polyline points="528.0,753.8 527.7,753.8 527.3,753.8 526.9,753.7" fill="none" stroke="#3fb950" stroke-width="1.5" opacity="0.164"/>
    <polyline points="435.9,726.4 435.5,726.3 435.4,726.1 435.5,726.1" fill="none" stroke="#3fb950" stroke-width="1.5" opacity="0.164"/>
    <polyline points="444.6,723.3 444.9,723.3 445.3,723.4 445.7,723.4" fill="none" stroke="#3fb950" stroke-width="1.5" opacity="0.164"/>
    <polyline points="536.7,750.8 537.0,750.9" fill="none" stroke="#3fb950" stroke-width="1.5" opacity="0.164"/>
    <polyline points="537.2,735.1 537.1,735.2" fill="none" stroke="#d29922" stroke-width="1.5" opacity="0.179"/>
    <polyline points="528.0,737.9 527.7,737.9 527.3,737.9 526.9,737.8" fill="none" stroke="#d29922" stroke-width="1.5" opacity="0.179"/>
    <polyline points="435.9,710.5 435.5,710.3 435.4,710.2 435.5,710.1" fill="none" stroke="#d29922" stroke-width="1.5" opacity="0.179"/>
    <polyline points="444.6,707.4 444.9,707.4 445.3,707.4 445.7,707.5" fill="none" stroke="#d29922" stroke-width="1.5" opacity="0.179"/>
    <polyline points="536.7,734.8 537.0,734.9" fill="none" stroke="#d29922" stroke-width="1.5" opacity="0.179"/>
    <polyline points="537.2,719.1 537.1,719.2" fill="none" stroke="#f78166" stroke-width="1.5" opacity="0.193"/>
    <polyline points="528.0,722.0 527.7,722.0 527.3,721.9 526.9,721.8" fill="none" stroke="#f78166" stroke-width="1.5" opacity="0.193"/>
    <polyline points="435.9,694.5 435.5,694.4 435.4,694.3 435.5,694.2" fill="none" stroke="#f78166" stroke-width="1.5" opacity="0.193"/>
    <polyline points="444.6,691.5 444.9,691.4 445.3,691.5 445.7,691.6" fill="none" stroke="#f78166" stroke-width="1.5" opacity="0.193"/>
    <polyline points="536.7,718.9 537.0,719.0" fill="none" stroke="#f78166" stroke-width="1.5" opacity="0.193"/>
    <polyline points="537.2,703.2 537.1,703.3" fill="none" stroke="#bc8cff" stroke-width="1.5" opacity="0.207"/>
    <polyline points="528.0,706.0 527.7,706.1 527.3,706.0 526.9,705.9" fill="none" stroke="#bc8cff" stroke-width="1.5" opacity="0.207"/>
    <polyline points="435.9,678.6 435.5,678.5 435.4,678.4 435.5,678.3" fill="none" stroke="#bc8cff" stroke-width="1.5" opacity="0.207"/>
    <polyline points="444.6,675.5 444.9,675.5 445.3,675.6 445.7,675.7" fill="none" stroke="#bc8cff" stroke-width="1.5" opacity="0.207"/>
    <polyline points="536.7,703.0 537.0,703.1" fill="none" stroke="#bc8cff" stroke-width="1.5" opacity="0.207"/>
    <polyline points="537.2,687.3 537.1,687.4" fill="none" stroke="#79c0ff" stroke-width="1.5" opacity="0.221"/>
    <polyline points="528.0,690.1 527.7,690.1 527.3,690.1 526.9,690.0" fill="none" stroke="#79c0ff" stroke-width="1.5" opacity="0.221"/>
    <polyline points="435.9,662.7 435.5,662.6 435.4,662.4 435.5,662.3" fill="none" stroke="#79c0ff" stroke-width="1.5" opacity="0.221"/>
    <polyline points="444.6,659.6 444.9,659.6 445.3,659.6 445.7,659.7" fill="none" stroke="#79c0ff" stroke-width="1.5" opacity="0.221"/>
    <polyline points="536.7,687.0 537.0,687.2" fill="none" stroke="#79c0ff" stroke-width="1.5" opacity="0.221"/>
    <polyline points="537.2,671.3 537.1,671.4" fill="none" stroke="#56d364" stroke-width="1.5" opacity="0.236"/>
    <polyline points="528.0,674.2 527.7,674.2 527.3,674.1 526.9,674.1" fill="none" stroke="#56d364" stroke-width="1.5" opacity="0.236"/>
    <polyline points="435.9,646.7 435.5,646.6 435.4,646.5 435.5,646.4" fill="none" stroke="#56d364" stroke-width="1.5" opacity="0.236"/>
    <polyline points="444.6,643.7 444.9,643.7 445.3,643.7 445.7,643.8" fill="none" stroke="#56d364" stroke-width="1.5" opacity="0.236"/>
    <polyline points="536.7,671.1 537.0,671.2" fill="none" stroke="#56d364" stroke-width="1.5" opacity="0.236"/>
    <polyline points="537.2,655.4 537.1,655.5" fill="none" stroke="#e3b341" stroke-width="1.5" opacity="0.250"/>
    <polyline points="528.0,658.2 527.7,658.3 527.3,658.2 526.9,658.1" fill="none" stroke="#e3b341" stroke-width="1.5" opacity="0.250"/>
    <polyline points="435.9,630.8 435.5,630.7 435.4,630.6 435.5,630.5" fill="none" stroke="#e3b341" stroke-width="1.5" opacity="0.250"/>
    <polyline points="444.6,627.8 444.9,627.7 445.3,627.8 445.7,627.9" fill="none" stroke="#e3b341" stroke-width="1.5" opacity="0.250"/>
    <polyline points="536.7,655.2 537.0,655.3" fill="none" stroke="#e3b341" stroke-width="1.5" opacity="0.250"/>
    <polyline points="537.2,639.5 537.1,639.6" fill="none" stroke="#ffa657" stroke-width="1.5" opacity="0.264"/>
    <polyline points="528.0,642.3 527.7,642.3 527.3,642.3 526.9,642.2" fill="none" stroke="#ffa657" stroke-width="1.5" opacity="0.264"/>
    <polyline points="435.9,614.9 435.5,614.8 435.4,614.6 435.5,614.6" fill="none" stroke="#ffa657" stroke-width="1.5" opacity="0.264"/>
    <polyline points="444.6,611.8 444.9,611.8 445.3,611.8 445.7,611.9" fill="none" stroke="#ffa657" stroke-width="1.5" opacity="0.264"/>
    <polyline points="536.7,639.2 537.0,639.4" fill="none" stroke="#ffa657" stroke-width="1.5" opacity="0.264"/>
    <polyline points="537.2,623.6 537.1,623.6" fill="none" stroke="#d2a8ff" stroke-width="1.5" opacity="0.279"/>
    <polyline points="528.0,626.4 527.7,626.4 527.3,626.4 526.9,626.3" fill="none" stroke="#d2a8ff" stroke-width="1.5" opacity="0.279"/>
    <polyline points="435.9,599.0 435.5,598.8 435.4,598.7 435.5,598.6" fill="none" stroke="#d2a8ff" stroke-width="1.5" opacity="0.279"/>
    <polyline points="444.6,595.9 444.9,595.9 445.3,595.9 445.7,596.0" fill="none" stroke="#d2a8ff" stroke-width="1.5" opacity="0.279"/>
    <polyline points="536.7,623.3 537.0,623.4" fill="none" stroke="#d2a8ff" stroke-width="1.5" opacity="0.279"/>
    <polyline points="537.2,607.6 537.1,607.7" fill="none" stroke="#58a6ff" stroke-width="1.5" opacity="0.293"/>
    <polyline points="528.0,610.4 527.7,610.5 527.3,610.4 526.9,610.3" fill="none" stroke="#58a6ff" stroke-width="1.5" opacity="0.293"/>
    <polyline points="435.9,583.0 435.5,582.9 435.4,582.8 435.5,582.7" fill="none" stroke="#58a6ff" stroke-width="1.5" opacity="0.293"/>
    <polyline points="444.6,580.0 444.9,579.9 445.3,580.0 445.7,580.1" fill="none" stroke="#58a6ff" stroke-width="1.5" opacity="0.293"/>
    <polyline points="536.7,607.4 537.0,607.5" fill="none" stroke="#58a6ff" stroke-width="1.5" opacity="0.293"/>
    <polyline points="537.2,591.7 537.1,591.8" fill="none" stroke="#3fb950" stroke-width="1.5" opacity="0.307"/>
    <polyline points="528.0,594.5 527.7,594.5 527.3,594.5 526.9,594.4" fill="none" stroke="#3fb950" stroke-width="1.5" opacity="0.307"/>
    <polyline points="435.9,567.1 435.5,567.0 435.4,566.8 435.5,566.8" fill="none" stroke="#3fb950" stroke-width="1.5" opacity="0.307"/>
    <polyline points="444.6,564.0 444.9,564.0 445.3,564.0 445.7,564.1" fill="none" stroke="#3fb950" stroke-width="1.5" opacity="0.307"/>
    <polyline points="536.7,591.5 537.0,591.6" fill="none" stroke="#3fb950" stroke-width="1.5" opacity="0.307"/>
    <polyline points="355.1,521.1 355.0,521.2" fill="none" stroke="#d29922" stroke-width="1.5" opacity="0.321"/>
    <polyline points="345.9,524.0 345.7,524.0 345.2,523.9 344.8,523.9" fill="none" stroke="#d29922" stroke-width="1.5" opacity="0.321"/>
    <polyline points="253.8,496.5 253.5,496.4 253.3,496.3 253.4,496.2" fill="none" stroke="#d29922" stroke-width="1.5" opacity="0.321"/>
    <polyline points="262.5,493.5 262.8,493.5 263.2,493.5 263.6,493.6" fill="none" stroke="#d29922" stroke-width="1.5" opacity="0.321"/>
    <polyline points="354.7,520.9 355.0,521.0" fill="none" stroke="#d29922" stroke-width="1.5" opacity="0.321"/>
    <polyline points="537.2,575.8 537.1,575.8" fill="none" stroke="#d29922" stroke-width="1.5" opacity="0.321"/>
    <polyline points="528.0,578.6 527.7,578.6 527.3,578.6 526.9,578.5" fill="none" stroke="#d29922" stroke-width="1.5" opacity="0.321"/>
    <polyline points="435.9,551.2 435.5,551.0 435.4,550.9 435.5,550.8" fill="none" stroke="#d29922" stroke-width="1.5" opacity="0.321"/>
    <polyline points="444.6,548.1 444.9,548.1 445.3,548.1 445.7,548.2" fill="none" stroke="#d29922" stroke-width="1.5" opacity="0.321"/>
    <polyline points="536.7,575.5 537.0,575.6" fill="none" stroke="#d29922" stroke-width="1.5" opacity="0.321"/>
    <polyline points="355.1,505.2 355.0,505.3" fill="none" stroke="#f78166" stroke-width="1.5" opacity="0.336"/>
    <polyline points="345.9,508.0 345.7,508.1 345.2,508.0 344.8,507.9" fill="none" stroke="#f78166" stroke-width="1.5" opacity="0.336"/>
    <polyline points="253.8,480.6 253.5,480.5 253.3,480.4 253.4,480.3" fill="none" stroke="#f78166" stroke-width="1.5" opacity="0.336"/>
    <polyline points="262.5,477.6 262.8,477.5 263.2,477.6 263.6,477.7" fill="none" stroke="#f78166" stroke-width="1.5" opacity="0.336"/>
    <polyline points="354.7,505.0 355.0,505.1" fill="none" stroke="#f78166" stroke-width="1.5" opacity="0.336"/>
    <polyline points="537.2,559.8 537.1,559.9" fill="none" stroke="#f78166" stroke-width="1.5" opacity="0.336"/>
    <polyline points="528.0,562.6 527.7,562.7 527.3,562.6 526.9,562.5" fill="none" stroke="#f78166" stroke-width="1.5" opacity="0.336"/>
    <polyline points="435.9,535.2 435.5,535.1 435.4,535.0 435.5,534.9" fill="none" stroke="#f78166" stroke-width="1.5" opacity="0.336"/>
    <polyline points="444.6,532.2 444.9,532.1 445.3,532.2 445.7,532.3" fill="none" stroke="#f78166" stroke-width="1.5" opacity="0.336"/>
    <polyline points="536.7,559.6 537.0,559.7" fill="none" stroke="#f78166" stroke-width="1.5" opacity="0.336"/>
    <polyline points="587.3,583.0 587.2,583.1" fill="none" stroke="#f78166" stroke-width="1.5" opacity="0.336"/>
    <polyline points="559.9,591.3 559.6,591.4 559.2,591.3 558.8,591.2" fill="none" stroke="#f78166" stroke-width="1.5" opacity="0.336"/>
    <polyline points="540.6,585.8 540.2,585.6 540.1,585.5 540.2,585.4" fill="none" stroke="#f78166" stroke-width="1.5" opacity="0.336"/>
    <polyline points="567.5,577.2 567.8,577.2 568.2,577.2 568.6,577.3" fill="none" stroke="#f78166" stroke-width="1.5" opacity="0.336"/>
    <polyline points="586.8,582.8 587.1,582.9" fill="none" stroke="#f78166" stroke-width="1.5" opacity="0.336"/>
    <polyline points="537.5,587.1 544.9,587.1 544.7,589.3 552.2,589.2 552.0,591.5" fill="none" stroke="#f78166" stroke-width="1.5" opacity="0.336"/>
    <polyline points="355.1,489.3 355.0,489.4" fill="none" stroke="#bc8cff" stroke-width="1.5" opacity="0.350"/>
    <polyline points="345.9,492.1 345.7,492.1 345.2,492.1 344.8,492.0" fill="none" stroke="#bc8cff" stroke-width="1.5" opacity="0.350"/>
    <polyline points="253.8,464.7 253.5,464.6 253.3,464.4 253.4,464.4" fill="none" stroke="#bc8cff" stroke-width="1.5" opacity="0.350"/>
    <polyline points="262.5,461.6 262.8,461.6 263.2,461.6 263.6,461.7" fill="none" stroke="#bc8cff" stroke-width="1.5" opacity="0.350"/>
    <polyline points="354.7,489.0 355.0,489.2" fill="none" stroke="#bc8cff" stroke-width="1.5" opacity="0.350"/>
    <polyline points="537.2,543.9 537.1,544.0" fill="none" stroke="#bc8cff" stroke-width="1.5" opacity="0.350"/>
    <polyline points="528.0,546.7 527.7,546.7 527.3,546.7 526.9,546.6" fill="none" stroke="#bc8cff" stroke-width="1.5" opacity="0.350"/>
    <polyline points="435.9,519.3 435.5,519.2 435.4,519.1 435.5,519.0" fill="none" stroke="#bc8cff" stroke-width="1.5" opacity="0.350"/>
    <polyline points="444.6,516.2 444.9,516.2 445.3,516.3 445.7,516.4" fill="none" stroke="#bc8cff" stroke-width="1.5" opacity="0.350"/>
    <polyline points="536.7,543.7 537.0,543.8" fill="none" stroke="#bc8cff" stroke-width="1.5" opacity="0.350"/>
    <polyline points="587.3,567.1 587.2,567.2" fill="none" stroke="#bc8cff" stroke-width="1.5" opacity="0.350"/>
    <polyline points="559.9,575.4 559.6,575.4 559.2,575.4 558.8,575.3" fill="none" stroke="#bc8cff" stroke-width="1.5" opacity="0.350"/>
    <polyline points="540.6,569.8 540.2,569.7 540.1,569.6 540.2,569.5" fill="none" stroke="#bc8cff" stroke-width="1.5" opacity="0.350"/>
    <polyline points="567.5,561.3 567.8,561.3 568.2,561.3 568.6,561.4" fill="none" stroke="#bc8cff" stroke-width="1.5" opacity="0.350"/>
    <polyline points="586.8,566.9 587.1,567.0" fill="none" stroke="#bc8cff" stroke-width="1.5" opacity="0.350"/>
    <polyline points="537.5,571.2 544.9,571.1 544.7,573.4 552.2,573.3 552.0,575.6" fill="none" stroke="#bc8cff" stroke-width="1.5" opacity="0.350"/>
    <polyline points="355.1,473.4 355.0,473.4" fill="none" stroke="#79c0ff" stroke-width="1.5" opacity="0.364"/>
    <polyline points="345.9,476.2 345.7,476.2 345.2,476.2 344.8,476.1" fill="none" stroke="#79c0ff" stroke-width="1.5" opacity="0.364"/>
    <polyline points="253.8,448.8 253.5,448.6 253.3,448.5 253.4,448.4" fill="none" stroke="#79c0ff" stroke-width="1.5" opacity="0.364"/>
    <polyline points="262.5,445.7 262.8,445.7 263.2,445.7 263.6,445.8" fill="none" stroke="#79c0ff" stroke-width="1.5" opacity="0.364"/>
    <polyline points="354.7,473.1 355.0,473.2" fill="none" stroke="#79c0ff" stroke-width="1.5" opacity="0.364"/>
    <polyline points="537.2,528.0 537.1,528.1" fill="none" stroke="#79c0ff" stroke-width="1.5" opacity="0.364"/>
    <polyline points="528.0,530.8 527.7,530.8 527.3,530.8 526.9,530.7" fill="none" stroke="#79c0ff" stroke-width="1.5" opacity="0.364"/>
    <polyline points="435.9,503.4 435.5,503.2 435.4,503.1 435.5,503.0" fill="none" stroke="#79c0ff" stroke-width="1.5" opacity="0.364"/>
    <polyline points="444.6,500.3 444.9,500.3 445.3,500.3 445.7,500.4" fill="none" stroke="#79c0ff" stroke-width="1.5" opacity="0.364"/>
    <polyline points="536.7,527.7 537.0,527.9" fill="none" stroke="#79c0ff" stroke-width="1.5" opacity="0.364"/>
    <polyline points="587.3,551.2 587.2,551.3" fill="none" stroke="#79c0ff" stroke-width="1.5" opacity="0.364"/>
    <polyline points="559.9,559.5 559.6,559.5 559.2,559.4 558.8,559.4" fill="none" stroke="#79c0ff" stroke-width="1.5" opacity="0.364"/>
    <polyline points="540.6,553.9 540.2,553.8 540.1,553.6 540.2,553.6" fill="none" stroke="#79c0ff" stroke-width="1.5" opacity="0.364"/>
    <polyline points="567.5,545.4 567.8,545.3 568.2,545.4 568.6,545.5" fill="none" stroke="#79c0ff" stroke-width="1.5" opacity="0.364"/>
    <polyline points="586.8,550.9 587.1,551.1" fill="none" stroke="#79c0ff" stroke-width="1.5" opacity="0.364"/>
    <polyline points="537.5,555.3 544.9,555.2 544.7,557.4 552.2,557.4 552.0,559.6" fill="none" stroke="#79c0ff" stroke-width="1.5" opacity="0.364"/>
    <polyline points="355.1,457.4 355.0,457.5" fill="none" stroke="#56d364" stroke-width="1.5" opacity="0.379"/>
    <polyline points="345.9,460.2 345.7,460.3 345.2,460.2 344.8,460.1" fill="none" stroke="#56d364" stroke-width="1.5" opacity="0.379"/>
    <polyline points="253.8,432.8 253.5,432.7 253.3,432.6 253.4,432.5" fill="none" stroke="#56d364" stroke-width="1.5" opacity="0.379"/>
    <polyline points="262.5,429.8 262.8,429.7 263.2,429.8 263.6,429.9" fill="none" stroke="#56d364" stroke-width="1.5" opacity="0.379"/>
    <polyline points="354.7,457.2 355.0,457.3" fill="none" stroke="#56d364" stroke-width="1.5" opacity="0.379"/>
    <polyline points="537.2,512.0 537.1,512.1" fill="none" stroke="#56d364" stroke-width="1.5" opacity="0.379"/>
    <polyline points="528.0,514.9 527.7,514.9 527.3,514.8 526.9,514.7" fill="none" stroke="#56d364" stroke-width="1.5" opacity="0.379"/>
    <polyline points="435.9,487.4 435.5,487.3 435.4,487.2 435.5,487.1" fill="none" stroke="#56d364" stroke-width="1.5" opacity="0.379"/>
    <polyline points="444.6,484.4 444.9,484.4 445.3,484.4 445.7,484.5" fill="none" stroke="#56d364" stroke-width="1.5" opacity="0.379"/>
    <polyline points="536.7,511.8 537.0,511.9" fill="none" stroke="#56d364" stroke-width="1.5" opacity="0.379"/>
    <polyline points="587.3,535.3 587.2,535.3" fill="none" stroke="#56d364" stroke-width="1.5" opacity="0.379"/>
    <polyline points="559.9,543.5 559.6,543.6 559.2,543.5 558.8,543.4" fill="none" stroke="#56d364" stroke-width="1.5" opacity="0.379"/>
    <polyline points="540.6,538.0 540.2,537.8 540.1,537.7 540.2,537.6" fill="none" stroke="#56d364" stroke-width="1.5" opacity="0.379"/>
    <polyline points="567.5,529.4 567.8,529.4 568.2,529.5 568.6,529.6" fill="none" stroke="#56d364" stroke-width="1.5" opacity="0.379"/>
    <polyline points="586.8,535.0 587.1,535.1" fill="none" stroke="#56d364" stroke-width="1.5" opacity="0.379"/>
    <polyline points="537.5,539.3 544.9,539.3 544.7,541.5 552.2,541.5 552.0,543.7" fill="none" stroke="#56d364" stroke-width="1.5" opacity="0.379"/>
    <polyline points="355.1,441.5 355.0,441.6" fill="none" stroke="#e3b341" stroke-width="1.5" opacity="0.393"/>
    <polyline points="345.9,444.3 345.7,444.3 345.2,444.3 344.8,444.2" fill="none" stroke="#e3b341" stroke-width="1.5" opacity="0.393"/>
    <polyline points="253.8,416.9 253.5,416.8 253.3,416.6 253.4,416.6" fill="none" stroke="#e3b341" stroke-width="1.5" opacity="0.393"/>
    <polyline points="262.5,413.8 262.8,413.8 263.2,413.8 263.6,413.9" fill="none" stroke="#e3b341" stroke-width="1.5" opacity="0.393"/>
    <polyline points="354.7,441.3 355.0,441.4" fill="none" stroke="#e3b341" stroke-width="1.5" opacity="0.393"/>
    <polyline points="537.2,496.1 537.1,496.2" fill="none" stroke="#e3b341" stroke-width="1.5" opacity="0.393"/>
    <polyline points="528.0,498.9 527.7,499.0 527.3,498.9 526.9,498.8" fill="none" stroke="#e3b341" stroke-width="1.5" opacity="0.393"/>
    <polyline points="435.9,471.5 435.5,471.4 435.4,471.3 435.5,471.2" fill="none" stroke="#e3b341" stroke-width="1.5" opacity="0.393"/>
    <polyline points="444.6,468.5 444.9,468.4 445.3,468.5 445.7,468.6" fill="none" stroke="#e3b341" stroke-width="1.5" opacity="0.393"/>
    <polyline points="536.7,495.9 537.0,496.0" fill="none" stroke="#e3b341" stroke-width="1.5" opacity="0.393"/>
    <polyline points="587.3,519.3 587.2,519.4" fill="none" stroke="#e3b341" stroke-width="1.5" opacity="0.393"/>
    <polyline points="559.9,527.6 559.6,527.6 559.2,527.6 558.8,527.5" fill="none" stroke="#e3b341" stroke-width="1.5" opacity="0.393"/>
    <polyline points="540.6,522.0 540.2,521.9 540.1,521.8 540.2,521.7" fill="none" stroke="#e3b341" stroke-width="1.5" opacity="0.393"/>
    <polyline points="567.5,513.5 567.8,513.5 568.2,513.5 568.6,513.6" fill="none" stroke="#e3b341" stroke-width="1.5" opacity="0.393"/>
    <polyline points="586.8,519.1 587.1,519.2" fill="none" stroke="#e3b341" stroke-width="1.5" opacity="0.393"/>
    <polyline points="537.5,523.4 544.9,523.3 544.7,525.6 552.2,525.5 552.0,527.8" fill="none" stroke="#e3b341" stroke-width="1.5" opacity="0.393"/>
    <polyline points="355.1,425.6 355.0,425.6" fill="none" stroke="#ffa657" stroke-width="1.5" opacity="0.407"/>
    <polyline points="345.9,428.4 345.7,428.4 345.2,428.4 344.8,428.3" fill="none" stroke="#ffa657" stroke-width="1.5" opacity="0.407"/>
    <polyline points="253.8,401.0 253.5,400.8 253.3,400.7 253.4,400.6" fill="none" stroke="#ffa657" stroke-width="1.5" opacity="0.407"/>
    <polyline points="262.5,397.9 262.8,397.9 263.2,397.9 263.6,398.0" fill="none" stroke="#ffa657" stroke-width="1.5" opacity="0.407"/>
    <polyline points="354.7,425.3 355.0,425.4" fill="none" stroke="#ffa657" stroke-width="1.5" opacity="0.407"/>
    <polyline points="537.2,480.2 537.1,480.3" fill="none" stroke="#ffa657" stroke-width="1.5" opacity="0.407"/>
    <polyline points="528.0,483.0 527.7,483.0 527.3,483.0 526.9,482.9" fill="none" stroke="#ffa657" stroke-width="1.5" opacity="0.407"/>
    <polyline points="435.9,455.6 435.5,455.5 435.4,455.3 435.5,455.3" fill="none" stroke="#ffa657" stroke-width="1.5" opacity="0.407"/>
    <polyline points="444.6,452.5 444.9,452.5 445.3,452.5 445.7,452.6" fill="none" stroke="#ffa657" stroke-width="1.5" opacity="0.407"/>
    <polyline points="536.7,479.9 537.0,480.1" fill="none" stroke="#ffa657" stroke-width="1.5" opacity="0.407"/>
    <polyline points="587.3,503.4 587.2,503.5" fill="none" stroke="#ffa657" stroke-width="1.5" opacity="0.407"/>
    <polyline points="559.9,511.7 559.6,511.7 559.2,511.7 558.8,511.6" fill="none" stroke="#ffa657" stroke-width="1.5" opacity="0.407"/>
    <polyline points="540.6,506.1 540.2,506.0 540.1,505.9 540.2,505.8" fill="none" stroke="#ffa657" stroke-width="1.5" opacity="0.407"/>
    <polyline points="567.5,497.6 567.8,497.6 568.2,497.6 568.6,497.7" fill="none" stroke="#ffa657" stroke-width="1.5" opacity="0.407"/>
    <polyline points="586.8,503.2 587.1,503.3" fill="none" stroke="#ffa657" stroke-width="1.5" opacity="0.407"/>
    <polyline points="537.5,507.5 544.9,507.4 544.7,509.7 552.2,509.6 552.0,511.8" fill="none" stroke="#ffa657" stroke-width="1.5" opacity="0.407"/>
    <polyline points="355.1,409.6 355.0,409.7" fill="none" stroke="#d2a8ff" stroke-width="1.5" opacity="0.421"/>
    <polyline points="345.9,412.4 345.7,412.5 345.2,412.4 344.8,412.3" fill="none" stroke="#d2a8ff" stroke-width="1.5" opacity="0.421"/>
    <polyline points="253.8,385.0 253.5,384.9 253.3,384.8 253.4,384.7" fill="none" stroke="#d2a8ff" stroke-width="1.5" opacity="0.421"/>
    <polyline points="262.5,382.0 262.8,381.9 263.2,382.0 263.6,382.1" fill="none" stroke="#d2a8ff" stroke-width="1.5" opacity="0.421"/>
    <polyline points="354.7,409.4 355.0,409.5" fill="none" stroke="#d2a8ff" stroke-width="1.5" opacity="0.421"/>
    <polyline points="537.2,464.3 537.1,464.3" fill="none" stroke="#d2a8ff" stroke-width="1.5" opacity="0.421"/>
    <polyline points="528.0,467.1 527.7,467.1 527.3,467.1 526.9,467.0" fill="none" stroke="#d2a8ff" stroke-width="1.5" opacity="0.421"/>
    <polyline points="435.9,439.6 435.5,439.5 435.4,439.4 435.5,439.3" fill="none" stroke="#d2a8ff" stroke-width="1.5" opacity="0.421"/>
    <polyline points="444.6,436.6 444.9,436.6 445.3,436.6 445.7,436.7" fill="none" stroke="#d2a8ff" stroke-width="1.5" opacity="0.421"/>
    <polyline points="536.7,464.0 537.0,464.1" fill="none" stroke="#d2a8ff" stroke-width="1.5" opacity="0.421"/>
    <polyline points="587.3,487.5 587.2,487.5" fill="none" stroke="#d2a8ff" stroke-width="1.5" opacity="0.421"/>
    <polyline points="559.9,495.7 559.6,495.8 559.2,495.7 558.8,495.6" fill="none" stroke="#d2a8ff" stroke-width="1.5" opacity="0.421"/>
    <polyline points="540.6,490.2 540.2,490.0 540.1,489.9 540.2,489.8" fill="none" stroke="#d2a8ff" stroke-width="1.5" opacity="0.421"/>
    <polyline points="567.5,481.7 567.8,481.6 568.2,481.7 568.6,481.8" fill="none" stroke="#d2a8ff" stroke-width="1.5" opacity="0.421"/>
    <polyline points="586.8,487.2 587.1,487.3" fill="none" stroke="#d2a8ff" stroke-width="1.5" opacity="0.421"/>
    <polyline points="537.5,491.5 544.9,491.5 544.7,493.7 552.2,493.7 552.0,495.9" fill="none" stroke="#d2a8ff" stroke-width="1.5" opacity="0.421"/>
    <polyline points="355.1,393.7 355.0,393.8" fill="none" stroke="#58a6ff" stroke-width="1.5" opacity="0.436"/>
    <polyline points="345.9,396.5 345.7,396.5 345.2,396.5 344.8,396.4" fill="none" stroke="#58a6ff" stroke-width="1.5" opacity="0.436"/>
    <polyline points="253.8,369.1 253.5,369.0 253.3,368.9 253.4,368.8" fill="none" stroke="#58a6ff" stroke-width="1.5" opacity="0.436"/>
    <polyline points="262.5,366.0 262.8,366.0 263.2,366.1 263.6,366.2" fill="none" stroke="#58a6ff" stroke-width="1.5" opacity="0.436"/>
    <polyline points="354.7,393.5 355.0,393.6" fill="none" stroke="#58a6ff" stroke-width="1.5" opacity="0.436"/>
    <polyline points="537.2,448.3 537.1,448.4" fill="none" stroke="#58a6ff" stroke-width="1.5" opacity="0.436"/>
    <polyline points="528.0,451.1 527.7,451.2 527.3,451.1 526.9,451.0" fill="none" stroke="#58a6ff" stroke-width="1.5" opacity="0.436"/>
    <polyline points="435.9,423.7 435.5,423.6 435.4,423.5 435.5,423.4" fill="none" stroke="#58a6ff" stroke-width="1.5" opacity="0.436"/>
    <polyline points="444.6,420.7 444.9,420.6 445.3,420.7 445.7,420.8" fill="none" stroke="#58a6ff" stroke-width="1.5" opacity="0.436"/>
    <polyline points="536.7,448.1 537.0,448.2" fill="none" stroke="#58a6ff" stroke-width="1.5" opacity="0.436"/>
    <polyline points="587.3,471.5 587.2,471.6" fill="none" stroke="#58a6ff" stroke-width="1.5" opacity="0.436"/>
    <polyline points="559.9,479.8 559.6,479.8 559.2,479.8 558.8,479.7" fill="none" stroke="#58a6ff" stroke-width="1.5" opacity="0.436"/>
    <polyline points="540.6,474.2 540.2,474.1 540.1,474.0 540.2,473.9" fill="none" stroke="#58a6ff" stroke-width="1.5" opacity="0.436"/>
    <polyline points="567.5,465.7 567.8,465.7 568.2,465.7 568.6,465.8" fill="none" stroke="#58a6ff" stroke-width="1.5" opacity="0.436"/>
    <polyline points="586.8,471.3 587.1,471.4" fill="none" stroke="#58a6ff" stroke-width="1.5" opacity="0.436"/>
    <polyline points="537.5,475.6 544.9,475.6 544.7,477.8 552.2,477.7 552.0,480.0" fill="none" stroke="#58a6ff" stroke-width="1.5" opacity="0.436"/>
    <polyline points="355.1,377.8 355.0,377.9" fill="none" stroke="#3fb950" stroke-width="1.5" opacity="0.450"/>
    <polyline points="345.9,380.6 345.7,380.6 345.2,380.6 344.8,380.5" fill="none" stroke="#3fb950" stroke-width="1.5" opacity="0.450"/>
    <polyline points="253.8,353.2 253.5,353.0 253.3,352.9 253.4,352.8" fill="none" stroke="#3fb950" stroke-width="1.5" opacity="0.450"/>
    <polyline points="262.5,350.1 262.8,350.1 263.2,350.1 263.6,350.2" fill="none" stroke="#3fb950" stroke-width="1.5" opacity="0.450"/>
    <polyline points="354.7,377.5 355.0,377.7" fill="none" stroke="#3fb950" stroke-width="1.5" opacity="0.450"/>
    <polyline points="537.2,432.4 537.1,432.5" fill="none" stroke="#3fb950" stroke-width="1.5" opacity="0.450"/>
    <polyline points="528.0,435.2 527.7,435.2 527.3,435.2 526.9,435.1" fill="none" stroke="#3fb950" stroke-width="1.5" opacity="0.450"/>
    <polyline points="435.9,407.8 435.5,407.7 435.4,407.5 435.5,407.5" fill="none" stroke="#3fb950" stroke-width="1.5" opacity="0.450"/>
    <polyline points="444.6,404.7 444.9,404.7 445.3,404.7 445.7,404.8" fill="none" stroke="#3fb950" stroke-width="1.5" opacity="0.450"/>
    <polyline points="536.7,432.1 537.0,432.3" fill="none" stroke="#3fb950" stroke-width="1.5" opacity="0.450"/>
    <polyline points="587.3,455.6 587.2,455.7" fill="none" stroke="#3fb950" stroke-width="1.5" opacity="0.450"/>
    <polyline points="559.9,463.9 559.6,463.9 559.2,463.9 558.8,463.8" fill="none" stroke="#3fb950" stroke-width="1.5" opacity="0.450"/>
    <polyline points="540.6,458.3 540.2,458.2 540.1,458.1 540.2,458.0" fill="none" stroke="#3fb950" stroke-width="1.5" opacity="0.450"/>
    <polyline points="567.5,449.8 567.8,449.8 568.2,449.8 568.6,449.9" fill="none" stroke="#3fb950" stroke-width="1.5" opacity="0.450"/>
    <polyline points="586.8,455.4 587.1,455.5" fill="none" stroke="#3fb950" stroke-width="1.5" opacity="0.450"/>
    <polyline points="537.5,459.7 544.9,459.6 544.7,461.9 552.2,461.8 552.0,464.0" fill="none" stroke="#3fb950" stroke-width="1.5" opacity="0.450"/>
    <polyline points="355.1,361.8 355.0,361.9" fill="none" stroke="#d29922" stroke-width="1.5" opacity="0.464"/>
    <polyline points="345.9,364.7 345.7,364.7 345.2,364.6 344.8,364.5" fill="none" stroke="#d29922" stroke-width="1.5" opacity="0.464"/>
    <polyline points="253.8,337.2 253.5,337.1 253.3,337.0 253.4,336.9" fill="none" stroke="#d29922" stroke-width="1.5" opacity="0.464"/>
    <polyline points="262.5,334.2 262.8,334.2 263.2,334.2 263.6,334.3" fill="none" stroke="#d29922" stroke-width="1.5" opacity="0.464"/>
    <polyline points="354.7,361.6 355.0,361.7" fill="none" stroke="#d29922" stroke-width="1.5" opacity="0.464"/>
    <polyline points="537.2,416.5 537.1,416.5" fill="none" stroke="#d29922" stroke-width="1.5" opacity="0.464"/>
    <polyline points="528.0,419.3 527.7,419.3 527.3,419.3 526.9,419.2" fill="none" stroke="#d29922" stroke-width="1.5" opacity="0.464"/>
    <polyline points="435.9,391.9 435.5,391.7 435.4,391.6 435.5,391.5" fill="none" stroke="#d29922" stroke-width="1.5" opacity="0.464"/>
    <polyline points="444.6,388.8 444.9,388.8 445.3,388.8 445.7,388.9" fill="none" stroke="#d29922" stroke-width="1.5" opacity="0.464"/>
    <polyline points="536.7,416.2 537.0,416.3" fill="none" stroke="#d29922" stroke-width="1.5" opacity="0.464"/>
    <polyline points="587.3,439.7 587.2,439.8" fill="none" stroke="#d29922" stroke-width="1.5" opacity="0.464"/>
    <polyline points="559.9,448.0 559.6,448.0 559.2,447.9 558.8,447.8" fill="none" stroke="#d29922" stroke-width="1.5" opacity="0.464"/>
    <polyline points="540.6,442.4 540.2,442.3 540.1,442.1 540.2,442.1" fill="none" stroke="#d29922" stroke-width="1.5" opacity="0.464"/>
    <polyline points="567.5,433.9 567.8,433.8 568.2,433.9 568.6,434.0" fill="none" stroke="#d29922" stroke-width="1.5" opacity="0.464"/>
    <polyline points="586.8,439.4 587.1,439.6" fill="none" stroke="#d29922" stroke-width="1.5" opacity="0.464"/>
    <polyline points="537.5,443.7 544.9,443.7 544.7,445.9 552.2,445.9 552.0,448.1" fill="none" stroke="#d29922" stroke-width="1.5" opacity="0.464"/>
    <polyline points="355.1,345.9 355.0,346.0" fill="none" stroke="#f78166" stroke-width="1.5" opacity="0.479"/>
    <polyline points="345.9,348.7 345.7,348.8 345.2,348.7 344.8,348.6" fill="none" stroke="#f78166" stroke-width="1.5" opacity="0.479"/>
    <polyline points="253.8,321.3 253.5,321.2 253.3,321.1 253.4,321.0" fill="none" stroke="#f78166" stroke-width="1.5" opacity="0.479"/>
    <polyline points="262.5,318.2 262.8,318.2 263.2,318.3 263.6,318.4" fill="none" stroke="#f78166" stroke-width="1.5" opacity="0.479"/>
    <polyline points="354.7,345.7 355.0,345.8" fill="none" stroke="#f78166" stroke-width="1.5" opacity="0.479"/>
    <polyline points="537.2,400.5 537.1,400.6" fill="none" stroke="#f78166" stroke-width="1.5" opacity="0.479"/>
    <polyline points="528.0,403.3 527.7,403.4 527.3,403.3 526.9,403.2" fill="none" stroke="#f78166" stroke-width="1.5" opacity="0.479"/>
    <polyline points="435.9,375.9 435.5,375.8 435.4,375.7 435.5,375.6" fill="none" stroke="#f78166" stroke-width="1.5" opacity="0.479"/>
    <polyline points="444.6,372.9 444.9,372.8 445.3,372.9 445.7,373.0" fill="none" stroke="#f78166" stroke-width="1.5" opacity="0.479"/>
    <polyline points="536.7,400.3 537.0,400.4" fill="none" stroke="#f78166" stroke-width="1.5" opacity="0.479"/>
    <polyline points="587.3,423.7 587.2,423.8" fill="none" stroke="#f78166" stroke-width="1.5" opacity="0.479"/>
    <polyline points="559.9,432.0 559.6,432.0 559.2,432.0 558.8,431.9" fill="none" stroke="#f78166" stroke-width="1.5" opacity="0.479"/>
    <polyline points="540.6,426.4 540.2,426.3 540.1,426.2 540.2,426.1" fill="none" stroke="#f78166" stroke-width="1.5" opacity="0.479"/>
    <polyline points="567.5,417.9 567.8,417.9 568.2,417.9 568.6,418.0" fill="none" stroke="#f78166" stroke-width="1.5" opacity="0.479"/>
    <polyline points="586.8,423.5 587.1,423.6" fill="none" stroke="#f78166" stroke-width="1.5" opacity="0.479"/>
    <polyline points="537.5,427.8 544.9,427.8 544.7,430.0 552.2,429.9 552.0,432.2" fill="none" stroke="#f78166" stroke-width="1.5" opacity="0.479"/>
    <polyline points="355.1,330.0 355.0,330.1" fill="none" stroke="#bc8cff" stroke-width="1.5" opacity="0.493"/>
    <polyline points="345.9,332.8 345.7,332.8 345.2,332.8 344.8,332.7" fill="none" stroke="#bc8cff" stroke-width="1.5" opacity="0.493"/>
    <polyline points="253.8,305.4 253.5,305.3 253.3,305.1 253.4,305.1" fill="none" stroke="#bc8cff" stroke-width="1.5" opacity="0.493"/>
    <polyline points="262.5,302.3 262.8,302.3 263.2,302.3 263.6,302.4" fill="none" stroke="#bc8cff" stroke-width="1.5" opacity="0.493"/>
    <polyline points="354.7,329.7 355.0,329.9" fill="none" stroke="#bc8cff" stroke-width="1.5" opacity="0.493"/>
    <polyline points="537.2,384.6 537.1,384.7" fill="none" stroke="#bc8cff" stroke-width="1.5" opacity="0.493"/>
    <polyline points="528.0,387.4 527.7,387.4 527.3,387.4 526.9,387.3" fill="none" stroke="#bc8cff" stroke-width="1.5" opacity="0.493"/>
    <polyline points="435.9,360.0 435.5,359.9 435.4,359.8 435.5,359.7" fill="none" stroke="#bc8cff" stroke-width="1.5" opacity="0.493"/>
    <polyline points="444.6,356.9 444.9,356.9 445.3,357.0 445.7,357.0" fill="none" stroke="#bc8cff" stroke-width="1.5" opacity="0.493"/>
    <polyline points="536.7,384.4 537.0,384.5" fill="none" stroke="#bc8cff" stroke-width="1.5" opacity="0.493"/>
    <polyline points="587.3,407.8 587.2,407.9" fill="none" stroke="#bc8cff" stroke-width="1.5" opacity="0.493"/>
    <polyline points="559.9,416.1 559.6,416.1 559.2,416.1 558.8,416.0" fill="none" stroke="#bc8cff" stroke-width="1.5" opacity="0.493"/>
    <polyline points="540.6,410.5 540.2,410.4 540.1,410.3 540.2,410.2" fill="none" stroke="#bc8cff" stroke-width="1.5" opacity="0.493"/>
    <polyline points="567.5,402.0 567.8,402.0 568.2,402.0 568.6,402.1" fill="none" stroke="#bc8cff" stroke-width="1.5" opacity="0.493"/>
    <polyline points="586.8,407.6 587.1,407.7" fill="none" stroke="#bc8cff" stroke-width="1.5" opacity="0.493"/>
    <polyline points="537.5,411.9 544.9,411.8 544.7,414.1 552.2,414.0 552.0,416.3" fill="none" stroke="#bc8cff" stroke-width="1.5" opacity="0.493"/>
    <polyline points="355.1,314.1 355.0,314.1" fill="none" stroke="#79c0ff" stroke-width="1.5" opacity="0.507"/>
    <polyline points="345.9,316.9 345.7,316.9 345.2,316.9 344.8,316.8" fill="none" stroke="#79c0ff" stroke-width="1.5" opacity="0.507"/>
    <polyline points="253.8,289.4 253.5,289.3 253.3,289.2 253.4,289.1" fill="none" stroke="#79c0ff" stroke-width="1.5" opacity="0.507"/>
    <polyline points="262.5,286.4 262.8,286.4 263.2,286.4 263.6,286.5" fill="none" stroke="#79c0ff" stroke-width="1.5" opacity="0.507"/>
    <polyline points="354.7,313.8 355.0,313.9" fill="none" stroke="#79c0ff" stroke-width="1.5" opacity="0.507"/>
    <polyline points="537.2,368.7 537.1,368.8" fill="none" stroke="#79c0ff" stroke-width="1.5" opacity="0.507"/>
    <polyline points="528.0,371.5 527.7,371.5 527.3,371.5 526.9,371.4" fill="none" stroke="#79c0ff" stroke-width="1.5" opacity="0.507"/>
    <polyline points="435.9,344.1 435.5,343.9 435.4,343.8 435.5,343.7" fill="none" stroke="#79c0ff" stroke-width="1.5" opacity="0.507"/>
    <polyline points="444.6,341.0 444.9,341.0 445.3,341.0 445.7,341.1" fill="none" stroke="#79c0ff" stroke-width="1.5" opacity="0.507"/>
    <polyline points="536.7,368.4 537.0,368.5" fill="none" stroke="#79c0ff" stroke-width="1.5" opacity="0.507"/>
    <polyline points="587.3,391.9 587.2,392.0" fill="none" stroke="#79c0ff" stroke-width="1.5" opacity="0.507"/>
    <polyline points="559.9,400.2 559.6,400.2 559.2,400.1 558.8,400.1" fill="none" stroke="#79c0ff" stroke-width="1.5" opacity="0.507"/>
    <polyline points="540.6,394.6 540.2,394.5 540.1,394.3 540.2,394.3" fill="none" stroke="#79c0ff" stroke-width="1.5" opacity="0.507"/>
    <polyline points="567.5,386.1 567.8,386.0 568.2,386.1 568.6,386.2" fill="none" stroke="#79c0ff" stroke-width="1.5" opacity="0.507"/>
    <polyline points="586.8,391.6 587.1,391.8" fill="none" stroke="#79c0ff" stroke-width="1.5" opacity="0.507"/>
    <polyline points="537.5,396.0 544.9,395.9 544.7,398.1 552.2,398.1 552.0,400.3" fill="none" stroke="#79c0ff" stroke-width="1.5" opacity="0.507"/>
    <polyline points="355.1,298.1 355.0,298.2" fill="none" stroke="#56d364" stroke-width="1.5" opacity="0.521"/>
    <polyline points="345.9,300.9 345.7,301.0 345.2,300.9 344.8,300.8" fill="none" stroke="#56d364" stroke-width="1.5" opacity="0.521"/>
    <polyline points="253.8,273.5 253.5,273.4 253.3,273.3 253.4,273.2" fill="none" stroke="#56d364" stroke-width="1.5" opacity="0.521"/>
    <polyline points="262.5,270.5 262.8,270.4 263.2,270.5 263.6,270.6" fill="none" stroke="#56d364" stroke-width="1.5" opacity="0.521"/>
    <polyline points="354.7,297.9 355.0,298.0" fill="none" stroke="#56d364" stroke-width="1.5" opacity="0.521"/>
    <polyline points="537.2,352.7 537.1,352.8" fill="none" stroke="#56d364" stroke-width="1.5" opacity="0.521"/>
    <polyline points="528.0,355.6 527.7,355.6 527.3,355.5 526.9,355.4" fill="none" stroke="#56d364" stroke-width="1.5" opacity="0.521"/>
    <polyline points="435.9,328.1 435.5,328.0 435.4,327.9 435.5,327.8" fill="none" stroke="#56d364" stroke-width="1.5" opacity="0.521"/>
    <polyline points="444.6,325.1 444.9,325.0 445.3,325.1 445.7,325.2" fill="none" stroke="#56d364" stroke-width="1.5" opacity="0.521"/>
    <polyline points="536.7,352.5 537.0,352.6" fill="none" stroke="#56d364" stroke-width="1.5" opacity="0.521"/>
    <polyline points="587.3,376.0 587.2,376.0" fill="none" stroke="#56d364" stroke-width="1.5" opacity="0.521"/>
    <polyline points="559.9,384.2 559.6,384.3 559.2,384.2 558.8,384.1" fill="none" stroke="#56d364" stroke-width="1.5" opacity="0.521"/>
    <polyline points="540.6,378.7 540.2,378.5 540.1,378.4 540.2,378.3" fill="none" stroke="#56d364" stroke-width="1.5" opacity="0.521"/>
    <polyline points="567.5,370.1 567.8,370.1 568.2,370.2 568.6,370.2" fill="none" stroke="#56d364" stroke-width="1.5" opacity="0.521"/>
    <polyline points="586.8,375.7 587.1,375.8" fill="none" stroke="#56d364" stroke-width="1.5" opacity="0.521"/>
    <polyline points="537.5,380.0 544.9,380.0 544.7,382.2 552.2,382.2 552.0,384.4" fill="none" stroke="#56d364" stroke-width="1.5" opacity="0.521"/>
    <polyline points="355.1,282.2 355.0,282.3" fill="none" stroke="#e3b341" stroke-width="1.5" opacity="0.536"/>
    <polyline points="345.9,285.0 345.7,285.0 345.2,285.0 344.8,284.9" fill="none" stroke="#e3b341" stroke-width="1.5" opacity="0.536"/>
    <polyline points="253.8,257.6 253.5,257.5 253.3,257.3 253.4,257.3" fill="none" stroke="#e3b341" stroke-width="1.5" opacity="0.536"/>
    <polyline points="262.5,254.5 262.8,254.5 263.2,254.5 263.6,254.6" fill="none" stroke="#e3b341" stroke-width="1.5" opacity="0.536"/>
    <polyline points="354.7,281.9 355.0,282.1" fill="none" stroke="#e3b341" stroke-width="1.5" opacity="0.536"/>
    <polyline points="537.2,336.8 537.1,336.9" fill="none" stroke="#e3b341" stroke-width="1.5" opacity="0.536"/>
    <polyline points="528.0,339.6 527.7,339.7 527.3,339.6 526.9,339.5" fill="none" stroke="#e3b341" stroke-width="1.5" opacity="0.536"/>
    <polyline points="435.9,312.2 435.5,312.1 435.4,312.0 435.5,311.9" fill="none" stroke="#e3b341" stroke-width="1.5" opacity="0.536"/>
    <polyline points="444.6,309.1 444.9,309.1 445.3,309.2 445.7,309.3" fill="none" stroke="#e3b341" stroke-width="1.5" opacity="0.536"/>
    <polyline points="536.7,336.6 537.0,336.7" fill="none" stroke="#e3b341" stroke-width="1.5" opacity="0.536"/>
    <polyline points="587.3,360.0 587.2,360.1" fill="none" stroke="#e3b341" stroke-width="1.5" opacity="0.536"/>
    <polyline points="559.9,368.3 559.6,368.3 559.2,368.3 558.8,368.2" fill="none" stroke="#e3b341" stroke-width="1.5" opacity="0.536"/>
    <polyline points="540.6,362.7 540.2,362.6 540.1,362.5 540.2,362.4" fill="none" stroke="#e3b341" stroke-width="1.5" opacity="0.536"/>
    <polyline points="567.5,354.2 567.8,354.2 568.2,354.2 568.6,354.3" fill="none" stroke="#e3b341" stroke-width="1.5" opacity="0.536"/>
    <polyline points="586.8,359.8 587.1,359.9" fill="none" stroke="#e3b341" stroke-width="1.5" opacity="0.536"/>
    <polyline points="537.5,364.1 544.9,364.0 544.7,366.3 552.2,366.2 552.0,368.5" fill="none" stroke="#e3b341" stroke-width="1.5" opacity="0.536"/>
    <polyline points="355.1,266.3 355.0,266.3" fill="none" stroke="#ffa657" stroke-width="1.5" opacity="0.550"/>
    <polyline points="345.9,269.1 345.7,269.1 345.2,269.1 344.8,269.0" fill="none" stroke="#ffa657" stroke-width="1.5" opacity="0.550"/>
    <polyline points="253.8,241.7 253.5,241.5 253.3,241.4 253.4,241.3" fill="none" stroke="#ffa657" stroke-width="1.5" opacity="0.550"/>
    <polyline points="262.5,238.6 262.8,238.6 263.2,238.6 263.6,238.7" fill="none" stroke="#ffa657" stroke-width="1.5" opacity="0.550"/>
    <polyline points="354.7,266.0 355.0,266.1" fill="none" stroke="#ffa657" stroke-width="1.5" opacity="0.550"/>
    <polyline points="537.2,320.9 537.1,321.0" fill="none" stroke="#ffa657" stroke-width="1.5" opacity="0.550"/>
    <polyline points="528.0,323.7 527.7,323.7 527.3,323.7 526.9,323.6" fill="none" stroke="#ffa657" stroke-width="1.5" opacity="0.550"/>
    <polyline points="435.9,296.3 435.5,296.2 435.4,296.0 435.5,295.9" fill="none" stroke="#ffa657" stroke-width="1.5" opacity="0.550"/>
    <polyline points="444.6,293.2 444.9,293.2 445.3,293.2 445.7,293.3" fill="none" stroke="#ffa657" stroke-width="1.5" opacity="0.550"/>
    <polyline points="536.7,320.6 537.0,320.8" fill="none" stroke="#ffa657" stroke-width="1.5" opacity="0.550"/>
    <polyline points="537.2,305.0 537.1,305.0" fill="none" stroke="#d2a8ff" stroke-width="1.5" opacity="0.564"/>
    <polyline points="528.0,307.8 527.7,307.8 527.3,307.7 526.9,307.7" fill="none" stroke="#d2a8ff" stroke-width="1.5" opacity="0.564"/>
    <polyline points="435.9,280.3 435.5,280.2 435.4,280.1 435.5,280.0" fill="none" stroke="#d2a8ff" stroke-width="1.5" opacity="0.564"/>
    <polyline points="444.6,277.3 444.9,277.3 445.3,277.3 445.7,277.4" fill="none" stroke="#d2a8ff" stroke-width="1.5" opacity="0.564"/>
    <polyline points="536.7,304.7 537.0,304.8" fill="none" stroke="#d2a8ff" stroke-width="1.5" opacity="0.564"/>

  <!-- Height dimension -->
  <line x1="780" y1="670.643641231593" x2="780" y2="126.73467202141907" stroke="#8b92ab" stroke-width="1.5"/>
  <polygon points="776,678.643641231593 780,670.643641231593 784,678.643641231593" fill="#8b92ab"/>
  <polygon points="776,118.73467202141907 780,126.73467202141907 784,118.73467202141907" fill="#8b92ab"/>
  <text x="792" y="402.6891566265061" fill="#8b92ab" font-size="10" transform="rotate(-90,792,398.6891566265061)">2,400 mm</text>


  <!-- Annotations -->
  <line x1="780" y1="535.2353413654619" x2="805" y2="535.2353413654619" stroke="#2d3348" stroke-width="0.5" stroke-dasharray="3,2"/>
  <text x="810" y="539.2353413654619" fill="#8b92ab" font-size="9">600 mm</text>
  <line x1="780" y1="398.689156626506" x2="805" y2="398.689156626506" stroke="#2d3348" stroke-width="0.5" stroke-dasharray="3,2"/>
  <text x="810" y="402.689156626506" fill="#8b92ab" font-size="9">1200 mm</text>
  <line x1="780" y1="262.1429718875503" x2="805" y2="262.1429718875503" stroke="#2d3348" stroke-width="0.5" stroke-dasharray="3,2"/>
  <text x="810" y="266.1429718875503" fill="#8b92ab" font-size="9">1800 mm</text>
  <line x1="780" y1="125.59678714859442" x2="805" y2="125.59678714859442" stroke="#2d3348" stroke-width="0.5" stroke-dasharray="3,2"/>
  <text x="810" y="129.59678714859442" fill="#8b92ab" font-size="9">2400 mm</text>
  <text x="415.4109772423025" y="743.5111111111111" fill="#58a6ff" font-size="8" font-weight="600" text-anchor="end" opacity="0.8">L1</text>
  <text x="415.4109772423025" y="663.8591700133868" fill="#79c0ff" font-size="8" font-weight="600" text-anchor="end" opacity="0.8">L6</text>
  <text x="415.4109772423025" y="584.2072289156627" fill="#58a6ff" font-size="8" font-weight="600" text-anchor="end" opacity="0.8">L11</text>
  <text x="425.28781793842035" y="501.75609103078983" fill="#79c0ff" font-size="8" font-weight="600" text-anchor="end" opacity="0.8">L16</text>
  <text x="425.28781793842035" y="422.1041499330656" fill="#58a6ff" font-size="8" font-weight="600" text-anchor="end" opacity="0.8">L21</text>
  <text x="425.28781793842035" y="342.4522088353414" fill="#79c0ff" font-size="8" font-weight="600" text-anchor="end" opacity="0.8">L26</text>
  <text x="70" y="700.643641231593" fill="#8b92ab" font-size="10">Bottom: Z=5 mm</text>
  <text x="70" y="116.73467202141907" fill="#8b92ab" font-size="10">Top: Z=2395 mm</text>
  <text x="395.26639892904956" y="464.6730923694779" fill="#58a6ff" font-size="9" text-anchor="middle">Main Wall</text>
  <text x="568.2248995983936" y="527.4843373493976" fill="#58a6ff" font-size="9" text-anchor="middle">Side Wall</text>
  <text x="606.912985274431" y="529.532530120482" fill="#bc8cff" font-size="9" text-anchor="middle">Column</text>

  <!-- Legend -->
  <text x="400.0" y="784" fill="#8b92ab" font-size="10" text-anchor="middle">Each colour band = one sampled layer · 35 of 720 total · <tspan fill="#58a6ff">perimeter</tspan> · <tspan fill="#3fb950">infill</tspan></text>

</svg>