<svg xmlns="http://www.w3.org/2000/svg" viewBox="0 0 800 315"
     style="background:#0f1117; border-radius:8px; font-family:system-ui,sans-serif;">
  <defs>
    <linearGradient id="bg-grad" x1="0" y1="0" x2="0" y2="1">
      <stop offset="0%" stop-color="#0f1117"/>
      <stop offset="100%" stop-color="#1a1d27"/>
    </linearGradient>
  </defs>
  <rect width="800" height="315" fill="url(#bg-grad)" rx="8"/>
  
  <!-- Title -->
  <text x="60" y="28" fill="#e2e4ed" font-size="15" font-weight="700">Plan view — demo house toolpath</text>
  <text x="60" y="46" fill="#8b92ab" font-size="11">Top-down view · 35 sampled layers · 325 toolpath segments</text>
  
  <!-- Grid -->
  <line x1="60.0" y1="226.13469387755103" x2="740.0" y2="226.13469387755103" stroke="#2d3348" stroke-width="0.5" stroke-dasharray="4,4"/>
  <line x1="642.8571428571429" y1="255.0" x2="642.8571428571429" y2="59.60408163265305" stroke="#2d3348" stroke-width="0.5" stroke-dasharray="4,4"/>

  <!-- Toolpath lines -->
    <polyline points="574.4408163265306,226.68979591836734 574.5795918367347,226.13469387755103" fill="none" stroke="#3fb950" stroke-width="1.0" opacity="0.17142857142857143" />
    <polyline points="574.5795918367347,198.3795918367347 574.4408163265306,197.82448979591837 574.0244897959184,197.40816326530611 573.469387755102,197.26938775510206" fill="none" stroke="#3fb950" stroke-width="1.0" opacity="0.17142857142857143" />
    <polyline points="434.6938775510204,197.26938775510206 434.1387755102041,197.40816326530611 433.72244897959183,197.82448979591837 433.58367346938775,198.3795918367347" fill="none" stroke="#3fb950" stroke-width="1.0" opacity="0.17142857142857143" />
    <polyline points="433.58367346938775,226.13469387755103 433.72244897959183,226.68979591836734 434.1387755102041,227.1061224489796 434.6938775510204,227.24489795918367" fill="none" stroke="#3fb950" stroke-width="1.0" opacity="0.17142857142857143" />
    <polyline points="573.469387755102,227.24489795918367 574.0244897959184,227.1061224489796" fill="none" stroke="#3fb950" stroke-width="1.0" opacity="0.17142857142857143" />
    <polyline points="296.8897959183673,226.68979591836734 297.02857142857147,226.13469387755103" fill="none" stroke="#3fb950" stroke-width="1.0" opacity="0.1757142857142857" />
    <polyline points="297.02857142857147,198.3795918367347 296.8897959183673,197.82448979591837 296.47346938775513,197.40816326530611 295.9183673469388,197.26938775510206" fill="none" stroke="#3fb950" stroke-width="1.0" opacity="0.1757142857142857" />
    <polyline points="157.14285714285714,197.26938775510206 156.58775510204083,197.40816326530611 156.17142857142858,197.82448979591837 156.0326530612245,198.3795918367347" fill="none" stroke="#3fb950" stroke-width="1.0" opacity="0.1757142857142857" />
    <polyline points="156.0326530612245,226.13469387755103 156.17142857142858,226.68979591836734 156.58775510204083,227.1061224489796 157.14285714285714,227.24489795918367" fill="none" stroke="#3fb950" stroke-width="1.0" opacity="0.1757142857142857" />
    <polyline points="295.9183673469388,227.24489795918367 296.47346938775513,227.1061224489796" fill="none" stroke="#3fb950" stroke-width="1.0" opacity="0.1757142857142857" />
    <polyline points="574.4408163265306,226.68979591836734 574.5795918367347,226.13469387755103" fill="none" stroke="#3fb950" stroke-width="1.0" opacity="0.1757142857142857" />
    <polyline points="574.5795918367347,198.3795918367347 574.4408163265306,197.82448979591837 574.0244897959184,197.40816326530611 573.469387755102,197.26938775510206" fill="none" stroke="#3fb950" stroke-width="1.0" opacity="0.1757142857142857" />
    <polyline points="434.6938775510204,197.26938775510206 434.1387755102041,197.40816326530611 433.72244897959183,197.82448979591837 433.58367346938775,198.3795918367347" fill="none" stroke="#3fb950" stroke-width="1.0" opacity="0.1757142857142857" />
    <polyline points="433.58367346938775,226.13469387755103 433.72244897959183,226.68979591836734 434.1387755102041,227.1061224489796 434.6938775510204,227.24489795918367" fill="none" stroke="#3fb950" stroke-width="1.0" opacity="0.1757142857142857" />
    <polyline points="573.469387755102,227.24489795918367 574.0244897959184,227.1061224489796" fill="none" stroke="#3fb950" stroke-width="1.0" opacity="0.1757142857142857" />
    <polyline points="296.8897959183673,226.68979591836734 297.02857142857147,226.13469387755103" fill="none" stroke="#3fb950" stroke-width="1.0" opacity="0.18" />
    <polyline points="297.02857142857147,198.3795918367347 296.8897959183673,197.82448979591837 296.47346938775513,197.40816326530611 295.9183673469388,197.26938775510206" fill="none" stroke="#3fb950" stroke-width="1.0" opacity="0.18" />
    <polyline points="157.14285714285714,197.26938775510206 156.58775510204083,197.40816326530611 156.17142857142858,197.82448979591837 156.0326530612245,198.3795918367347" fill="none" stroke="#3fb950" stroke-width="1.0" opacity="0.18" />
    <polyline points="156.0326530612245,226.13469387755103 156.17142857142858,226.68979591836734 156.58775510204083,227.1061224489796 157.14285714285714,227.24489795918367" fill="none" stroke="#3fb950" stroke-width="1.0" opacity="0.18" />
    <polyline points="295.9183673469388,227.24489795918367 296.47346938775513,227.1061224489796" fill="none" stroke="#3fb950" stroke-width="1.0" opacity="0.18" />
    <polyline points="574.4408163265306,226.68979591836734 574.5795918367347,226.13469387755103" fill="none" stroke="#3fb950" stroke-width="1.0" opacity="0.18" />
    <polyline points="574.5795918367347,198.3795918367347 574.4408163265306,197.82448979591837 574.0244897959184,197.40816326530611 573.469387755102,197.26938775510206" fill="none" stroke="#3fb950" stroke-width="1.0" opacity="0.18" />
    <polyline points="434.6938775510204,197.26938775510206 434.1387755102041,197.40816326530611 433.72244897959183,197.82448979591837 433.58367346938775,198.3795918367347" fill="none" stroke="#3fb950" stroke-width="1.0" opacity="0.18" />
    <polyline points="433.58367346938775,226.13469387755103 433.72244897959183,226.68979591836734 434.1387755102041,227.1061224489796 434.6938775510204,227.24489795918367" fill="none" stroke="#3fb950" stroke-width="1.0" opacity="0.18" />
    <polyline points="573.469387755102,227.24489795918367 574.0244897959184,227.1061224489796" fill="none" stroke="#3fb950" stroke-width="1.0" opacity="0.18" />
    <polyline points="671.5836734693878,185.05714285714288 671.7224489795918,184.50204081632654" fill="none" stroke="#3fb950" stroke-width="1.0" opacity="0.18" />
    <polyline points="671.7224489795918,101.23673469387757 671.5836734693878,100.68163265306123 671.1673469387755,100.26530612244898 670.6122448979592,100.12653061224489" fill="none" stroke="#3fb950" stroke-width="1.0" opacity="0.18" />
    <polyline points="642.8571428571429,100.12653061224489 642.3020408163266,100.26530612244898 641.8857142857142,100.68163265306123 641.7469387755102,101.23673469387757" fill="none" stroke="#3fb950" stroke-width="1.0" opacity="0.18" />
    <polyline points="641.7469387755102,184.50204081632654 641.8857142857142,185.05714285714288 642.3020408163266,185.4734693877551 642.8571428571429,185.6122448979592" fill="none" stroke="#3fb950" stroke-width="1.0" opacity="0.18" />
    <polyline points="670.6122448979592,185.6122448979592 671.1673469387755,185.4734693877551" fill="none" stroke="#3fb950" stroke-width="1.0" opacity="0.18" />
    <polyline points="643.9673469387754,88.46938775510205 649.5183673469388,100.12653061224489 655.0693877551021,88.46938775510205 660.6204081632653,100.12653061224489 666.1714285714286,88.46938775510205" fill="none" stroke="#3fb950" stroke-width="1.0" opacity="0.18" />
    <polyline points="296.8897959183673,226.68979591836734 297.02857142857147,226.13469387755103" fill="none" stroke="#3fb950" stroke-width="1.0" opacity="0.18428571428571427" />
    <polyline points="297.02857142857147,198.3795918367347 296.8897959183673,197.82448979591837 296.47346938775513,197.40816326530611 295.9183673469388,197.26938775510206" fill="none" stroke="#3fb950" stroke-width="1.0" opacity="0.18428571428571427" />
    <polyline points="157.14285714285714,197.26938775510206 156.58775510204083,197.40816326530611 156.17142857142858,197.82448979591837 156.0326530612245,198.3795918367347" fill="none" stroke="#3fb950" stroke-width="1.0" opacity="0.18428571428571427" />
    <polyline points="156.0326530612245,226.13469387755103 156.17142857142858,226.68979591836734 156.58775510204083,227.1061224489796 157.14285714285714,227.24489795918367" fill="none" stroke="#3fb950" stroke-width="1.0" opacity="0.18428571428571427" />
    <polyline points="295.9183673469388,227.24489795918367 296.47346938775513,227.1061224489796" fill="none" stroke="#3fb950" stroke-width="1.0" opacity="0.18428571428571427" />
    <polyline points="574.4408163265306,226.68979591836734 574.5795918367347,226.13469387755103" fill="none" stroke="#3fb950" stroke-width="1.0" opacity="0.18428571428571427" />
    <polyline points="574.5795918367347,198.3795918367347 574.4408163265306,197.82448979591837 574.0244897959184,197.40816326530611 573.469387755102,197.26938775510206" fill="none" stroke="#3fb950" stroke-width="1.0" opacity="0.18428571428571427" />
    <polyline points="434.6938775510204,197.26938775510206 434.1387755102041,197.40816326530611 433.72244897959183,197.82448979591837 433.58367346938775,198.3795918367347" fill="none" stroke="#3fb950" stroke-width="1.0" opacity="0.18428571428571427" />
    <polyline points="433.58367346938775,226.13469387755103 433.72244897959183,226.68979591836734 434.1387755102041,227.1061224489796 434.6938775510204,227.24489795918367" fill="none" stroke="#3fb950" stroke-width="1.0" opacity="0.18428571428571427" />
    <polyline points="573.469387755102,227.24489795918367 574.0244897959184,227.1061224489796" fill="none" stroke="#3fb950" stroke-width="1.0" opacity="0.18428571428571427" />
    <polyline points="671.5836734693878,185.05714285714288 671.7224489795918,184.50204081632654" fill="none" stroke="#3fb950" stroke-width="1.0" opacity="0.18428571428571427" />
    <polyline points="671.7224489795918,101.23673469387757 671.5836734693878,100.68163265306123 671.1673469387755,100.26530612244898 670.6122448979592,100.12653061224489" fill="none" stroke="#3fb950" stroke-width="1.0" opacity="0.18428571428571427" />
    <polyline points="642.8571428571429,100.12653061224489 642.3020408163266,100.26530612244898 641.8857142857142,100.68163265306123 641.7469387755102,101.23673469387757" fill="none" stroke="#3fb950" stroke-width="1.0" opacity="0.18428571428571427" />
    <polyline points="641.7469387755102,184.50204081632654 641.8857142857142,185.05714285714288 642.3020408163266,185.4734693877551 642.8571428571429,185.6122448979592" fill="none" stroke="#3fb950" stroke-width="1.0" opacity="0.18428571428571427" />
    <polyline points="670.6122448979592,185.6122448979592 671.1673469387755,185.4734693877551" fill="none" stroke="#3fb950" stroke-width="1.0" opacity="0.18428571428571427" />
    <polyline points="643.9673469387754,88.46938775510205 649.5183673469388,100.12653061224489 655.0693877551021,88.46938775510205 660.6204081632653,100.12653061224489 666.1714285714286,88.46938775510205" fill="none" stroke="#3fb950" stroke-width="1.0" opacity="0.18428571428571427" />
    <polyline points="296.8897959183673,226.68979591836734 297.02857142857147,226.13469387755103" fill="none" stroke="#3fb950" stroke-width="1.0" opacity="0.18857142857142856" />
    <polyline points="297.02857142857147,198.3795918367347 296.8897959183673,197.82448979591837 296.47346938775513,197.40816326530611 295.9183673469388,197.26938775510206" fill="none" stroke="#3fb950" stroke-width="1.0" opacity="0.18857142857142856" />
    <polyline points="157.14285714285714,197.26938775510206 156.58775510204083,197.40816326530611 156.17142857142858,197.82448979591837 156.0326530612245,198.3795918367347" fill="none" stroke="#3fb950" stroke-width="1.0" opacity="0.18857142857142856" />
    <polyline points="156.0326530612245,226.13469387755103 156.17142857142858,226.68979591836734 156.58775510204083,227.1061224489796 157.14285714285714,227.24489795918367" fill="none" stroke="#3fb950" stroke-width="1.0" opacity="0.18857142857142856" />
    <polyline points="295.9183673469388,227.24489795918367 296.47346938775513,227.1061224489796" fill="none" stroke="#3fb950" stroke-width="1.0" opacity="0.18857142857142856" />
    <polyline points="574.4408163265306,226.68979591836734 574.5795918367347,226.13469387755103" fill="none" stroke="#3fb950" stroke-width="1.0" opacity="0.18857142857142856" />
    <polyline points="574.5795918367347,198.3795918367347 574.4408163265306,197.82448979591837 574.0244897959184,197.40816326530611 573.469387755102,197.26938775510206" fill="none" stroke="#3fb950" stroke-width="1.0" opacity="0.18857142857142856" />
    <polyline points="434.6938775510204,197.26938775510206 434.1387755102041,197.40816326530611 433.72244897959183,197.82448979591837 433.58367346938775,198.3795918367347" fill="none" stroke="#3fb950" stroke-width="1.0" opacity="0.18857142857142856" />
    <polyline points="433.58367346938775,226.13469387755103 433.72244897959183,226.68979591836734 434.1387755102041,227.1061224489796 434.6938775510204,227.24489795918367" fill="none" stroke="#3fb950" stroke-width="1.0" opacity="0.18857142857142856" />
    <polyline points="573.469387755102,227.24489795918367 574.0244897959184,227.1061224489796" fill="none" stroke="#3fb950" stroke-width="1.0" opacity="0.18857142857142856" />
    <polyline points="671.5836734693878,185.05714285714288 671.7224489795918,184.50204081632654" fill="none" stroke="#3fb950" stroke-width="1.0" opacity="0.18857142857142856" />
    <polyline points="671.7224489795918,101.23673469387757 671.5836734693878,100.68163265306123 671.1673469387755,100.26530612244898 670.6122448979592,100.12653061224489" fill="none" stroke="#3fb950" stroke-width="1.0" opacity="0.18857142857142856" />
    <polyline points="642.8571428571429,100.12653061224489 642.3020408163266,100.26530612244898 641.8857142857142,100.68163265306123 641.7469387755102,101.23673469387757" fill="none" stroke="#3fb950" stroke-width="1.0" opacity="0.18857142857142856" />
    <polyline points="641.7469387755102,184.50204081632654 641.8857142857142,185.05714285714288 642.3020408163266,185.4734693877551 642.8571428571429,185.6122448979592" fill="none" stroke="#3fb950" stroke-width="1.0" opacity="0.18857142857142856" />
    <polyline points="670.6122448979592,185.6122448979592 671.1673469387755,185.4734693877551" fill="none" stroke="#3fb950" stroke-width="1.0" opacity="0.18857142857142856" />
    <polyline points="643.9673469387754,88.46938775510205 649.5183673469388,100.12653061224489 655.0693877551021,88.46938775510205 660.6204081632653,100.12653061224489 666.1714285714286,88.46938775510205" fill="none" stroke="#3fb950" stroke-width="1.0" opacity="0.18857142857142856" />
    <polyline points="296.8897959183673,226.68979591836734 297.02857142857147,226.13469387755103" fill="none" stroke="#3fb950" stroke-width="1.0" opacity="0.19285714285714284" />
    <polyline points="297.02857142857147,198.3795918367347 296.8897959183673,197.82448979591837 296.47346938775513,197.40816326530611 295.9183673469388,197.26938775510206" fill="none" stroke="#3fb950" stroke-width="1.0" opacity="0.19285714285714284" />
    <polyline points="157.14285714285714,197.26938775510206 156.58775510204083,197.40816326530611 156.17142857142858,197.82448979591837 156.0326530612245,198.3795918367347" fill="none" stroke="#3fb950" stroke-width="1.0" opacity="0.19285714285714284" />
    <polyline points="156.0326530612245,226.13469387755103 156.17142857142858,226.68979591836734 156.58775510204083,227.1061224489796 157.14285714285714,227.24489795918367" fill="none" stroke="#3fb950" stroke-width="1.0" opacity="0.19285714285714284" />
    <polyline points="295.9183673469388,227.24489795918367 296.47346938775513,227.1061224489796" fill="none" stroke="#3fb950" stroke-width="1.0" opacity="0.19285714285714284" />
    <polyline points="574.4408163265306,226.68979591836734 574.5795918367347,226.13469387755103" fill="none" stroke="#3fb950" stroke-width="1.0" opacity="0.19285714285714284" />
    <polyline points="574.5795918367347,198.3795918367347 574.4408163265306,197.82448979591837 574.0244897959184,197.40816326530611 573.469387755102,197.26938775510206" fill="none" stroke="#3fb950" stroke-width="1.0" opacity="0.19285714285714284" />
    <polyline points="434.6938775510204,197.26938775510206 434.1387755102041,197.40816326530611 433.72244897959183,197.82448979591837 433.58367346938775,198.3795918367347" fill="none" stroke="#3fb950" stroke-width="1.0" opacity="0.19285714285714284" />
    <polyline points="433.58367346938775,226.13469387755103 433.72244897959183,226.68979591836734 434.1387755102041,227.1061224489796 434.6938775510204,227.24489795918367" fill="none" stroke="#3fb950" stroke-width="1.0" opacity="0.19285714285714284" />
    <polyline points="573.469387755102,227.24489795918367 574.0244897959184,227.1061224489796" fill="none" stroke="#3fb950" stroke-width="1.0" opacity="0.19285714285714284" />
    <polyline points="671.5836734693878,185.05714285714288 671.7224489795918,184.50204081632654" fill="none" stroke="#3fb950" stroke-width="1.0" opacity="0.19285714285714284" />
    <polyline points="671.7224489795918,101.23673469387757 671.5836734693878,100.68163265306123 671.1673469387755,100.26530612244898 670.6122448979592,100.12653061224489" fill="none" stroke="#3fb950" stroke-width="1.0" opacity="0.19285714285714284" />
    <polyline points="642.8571428571429,100.12653061224489 642.3020408163266,100.26530612244898 641.8857142857142,100.68163265306123 641.7469387755102,101.23673469387757" fill="none" stroke="#3fb950" stroke-width="1.0" opacity="0.19285714285714284" />
    <polyline points="641.7469387755102,184.50204081632654 641.8857142857142,185.05714285714288 642.3020408163266,185.4734693877551 642.8571428571429,185.6122448979592" fill="none" stroke="#3fb950" stroke-width="1.0" opacity="0.19285714285714284" />
    <polyline points="670.6122448979592,185.6122448979592 671.1673469387755,185.4734693877551" fill="none" stroke="#3fb950" stroke-width="1.0" opacity="0.19285714285714284" />
    <polyline points="643.9673469387754,88.46938775510205 649.5183673469388,100.12653061224489 655.0693877551021,88.46938775510205 660.6204081632653,100.12653061224489 666.1714285714286,88.46938775510205" fill="none" stroke="#3fb950" stroke-width="1.0" opacity="0.19285714285714284" />
    <polyline points="296.8897959183673,226.68979591836734 297.02857142857147,226.13469387755103" fill="none" stroke="#3fb950" stroke-width="1.0" opacity="0.19714285714285712" />
    <polyline points="297.02857142857147,198.3795918367347 296.8897959183673,197.82448979591837 296.47346938775513,197.40816326530611 295.9183673469388,197.26938775510206" fill="none" stroke="#3fb950" stroke-width="1.0" opacity="0.19714285714285712" />
    <polyline points="157.14285714285714,197.26938775510206 156.58775510204083,197.40816326530611 156.17142857142858,197.82448979591837 156.0326530612245,198.3795918367347" fill="none" stroke="#3fb950" stroke-width="1.0" opacity="0.19714285714285712" />
    <polyline points="156.0326530612245,226.13469387755103 156.17142857142858,226.68979591836734 156.58775510204083,227.1061224489796 157.14285714285714,227.24489795918367" fill="none" stroke="#3fb950" stroke-width="1.0" opacity="0.19714285714285712" />
    <polyline points="295.9183673469388,227.24489795918367 296.47346938775513,227.1061224489796" fill="none" stroke="#3fb950" stroke-width="1.0" opacity="0.19714285714285712" />
    <polyline points="574.4408163265306,226.68979591836734 574.5795918367347,226.13469387755103" fill="none" stroke="#3fb950" stroke-width="1.0" opacity="0.19714285714285712" />
    <polyline points="574.5795918367347,198.3795918367347 574.4408163265306,197.82448979591837 574.0244897959184,197.40816326530611 573.469387755102,197.26938775510206" fill="none" stroke="#3fb950" stroke-width="1.0" opacity="0.19714285714285712" />
    <polyline points="434.6938775510204,197.26938775510206 434.1387755102041,197.40816326530611 433.72244897959183,197.82448979591837 433.58367346938775,198.3795918367347" fill="none" stroke="#3fb950" stroke-width="1.0" opacity="0.19714285714285712" />
    <polyline points="433.58367346938775,226.13469387755103 433.72244897959183,226.68979591836734 434.1387755102041,227.1061224489796 434.6938775510204,227.24489795918367" fill="none" stroke="#3fb950" stroke-width="1.0" opacity="0.19714285714285712" />
    <polyline points="573.469387755102,227.24489795918367 574.0244897959184,227.1061224489796" fill="none" stroke="#3fb950" stroke-width="1.0" opacity="0.19714285714285712" />
    <polyline points="671.5836734693878,185.05714285714288 671.7224489795918,184.50204081632654" fill="none" stroke="#3fb950" stroke-width="1.0" opacity="0.19714285714285712" />
    <polyline points="671.7224489795918,101.23673469387757 671.5836734693878,100.68163265306123 671.1673469387755,100.26530612244898 670.6122448979592,100.12653061224489" fill="none" stroke="#3fb950" stroke-width="1.0" opacity="0.19714285714285712" />
    <polyline points="642.8571428571429,100.12653061224489 642.3020408163266,100.26530612244898 641.8857142857142,100.68163265306123 641.7469387755102,101.23673469387757" fill="none" stroke="#3fb950" stroke-width="1.0" opacity="0.19714285714285712" />
    <polyline points="641.7469387755102,184.50204081632654 641.8857142857142,185.05714285714288 642.3020408163266,185.4734693877551 642.8571428571429,185.6122448979592" fill="none" stroke="#3fb950" stroke-width="1.0" opacity="0.19714285714285712" />
    <polyline points="670.6122448979592,185.6122448979592 671.1673469387755,185.4734693877551" fill="none" stroke="#3fb950" stroke-width="1.0" opacity="0.19714285714285712" />
    <polyline points="643.9673469387754,88.46938775510205 649.5183673469388,100.12653061224489 655.0693877551021,88.46938775510205 660.6204081632653,100.12653061224489 666.1714285714286,88.46938775510205" fill="none" stroke="#3fb950" stroke-width="1.0" opacity="0.19714285714285712" />
    <polyline points="296.8897959183673,226.68979591836734 297.02857142857147,226.13469387755103" fill="none" stroke="#3fb950" stroke-width="1.0" opacity="0.20142857142857143" />
    <polyline points="297.02857142857147,198.3795918367347 296.8897959183673,197.82448979591837 296.47346938775513,197.40816326530611 295.9183673469388,197.26938775510206" fill="none" stroke="#3fb950" stroke-width="1.0" opacity="0.20142857142857143" />
    <polyline points="157.14285714285714,197.26938775510206 156.58775510204083,197.40816326530611 156.17142857142858,197.82448979591837 156.0326530612245,198.3795918367347" fill="none" stroke="#3fb950" stroke-width="1.0" opacity="0.20142857142857143" />
    <polyline points="156.0326530612245,226.13469387755103 156.17142857142858,226.68979591836734 156.58775510204083,227.1061224489796 157.14285714285714,227.24489795918367" fill="none" stroke="#3fb950" stroke-width="1.0" opacity="0.20142857142857143" />
    <polyline points="295.9183673469388,227.24489795918367 296.47346938775513,227.1061224489796" fill="none" stroke="#3fb950" stroke-width="1.0" opacity="0.20142857142857143" />
    <polyline points="574.4408163265306,226.68979591836734 574.5795918367347,226.13469387755103" fill="none" stroke="#3fb950" stroke-width="1.0" opacity="0.20142857142857143" />
    <polyline points="574.5795918367347,198.3795918367347 574.4408163265306,197.82448979591837 574.0244897959184,197.40816326530611 573.469387755102,197.26938775510206" fill="none" stroke="#3fb950" stroke-width="1.0" opacity="0.20142857142857143" />
    <polyline points="434.6938775510204,197.26938775510206 434.1387755102041,197.40816326530611 433.72244897959183,197.82448979591837 433.58367346938775,198.3795918367347" fill="none" stroke="#3fb950" stroke-width="1.0" opacity="0.20142857142857143" />
    <polyline points="433.58367346938775,226.13469387755103 433.72244897959183,226.68979591836734 434.1387755102041,227.1061224489796 434.6938775510204,227.24489795918367" fill="none" stroke="#3fb950" stroke-width="1.0" opacity="0.20142857142857143" />
    <polyline points="573.469387755102,227.24489795918367 574.0244897959184,227.1061224489796" fill="none" stroke="#3fb950" stroke-width="1.0" opacity="0.20142857142857143" />
    <polyline points="671.5836734693878,185.05714285714288 671.7224489795918,184.50204081632654" fill="none" stroke="#3fb950" stroke-width="1.0" opacity="0.20142857142857143" />
    <polyline points="671.7224489795918,101.23673469387757 671.5836734693878,100.68163265306123 671.1673469387755,100.26530612244898 670.6122448979592,100.12653061224489" fill="none" stroke="#3fb950" stroke-width="1.0" opacity="0.20142857142857143" />
    <polyline points="642.8571428571429,100.12653061224489 642.3020408163266,100.26530612244898 641.8857142857142,100.68163265306123 641.7469387755102,101.23673469387757" fill="none" stroke="#3fb950" stroke-width="1.0" opacity="0.20142857142857143" />
    <polyline points="641.7469387755102,184.50204081632654 641.8857142857142,185.05714285714288 642.3020408163266,185.4734693877551 642.8571428571429,185.6122448979592" fill="none" stroke="#3fb950" stroke-width="1.0" opacity="0.20142857142857143" />
    <polyline points="670.6122448979592,185.6122448979592 671.1673469387755,185.4734693877551" fill="none" stroke="#3fb950" stroke-width="1.0" opacity="0.20142857142857143" />
    <polyline points="643.9673469387754,88.46938775510205 649.5183673469388,100.12653061224489 655.0693877551021,88.46938775510205 660.6204081632653,100.12653061224489 666.1714285714286,88.46938775510205" fill="none" stroke="#3fb950" stroke-width="1.0" opacity="0.20142857142857143" />
    <polyline points="296.8897959183673,226.68979591836734 297.02857142857147,226.13469387755103" fill="none" stroke="#3fb950" stroke-width="1.0" opacity="0.2057142857142857" />
    <polyline points="297.02857142857147,198.3795918367347 296.8897959183673,197.82448979591837 296.47346938775513,197.40816326530611 295.9183673469388,197.26938775510206" fill="none" stroke="#3fb950" stroke-width="1.0" opacity="0.2057142857142857" />
    <polyline points="157.14285714285714,197.26938775510206 156.58775510204083,197.40816326530611 156.17142857142858,197.82448979591837 156.0326530612245,198.3795918367347" fill="none" stroke="#3fb950" stroke-width="1.0" opacity="0.2057142857142857" />
    <polyline points="156.0326530612245,226.13469387755103 156.17142857142858,226.68979591836734 156.58775510204083,227.1061224489796 157.14285714285714,227.24489795918367" fill="none" stroke="#3fb950" stroke-width="1.0" opacity="0.2057142857142857" />
    <polyline points="295.9183673469388,227.24489795918367 296.47346938775513,227.1061224489796" fill="none" stroke="#3fb950" stroke-width="1.0" opacity="0.2057142857142857" />
    <polyline points="574.4408163265306,226.68979591836734 574.5795918367347,226.13469387755103" fill="none" stroke="#3fb950" stroke-width="1.0" opacity="0.2057142857142857" />
    <polyline points="574.5795918367347,198.3795918367347 574.4408163265306,197.82448979591837 574.0244897959184,197.40816326530611 573.469387755102,197.26938775510206" fill="none" stroke="#3fb950" stroke-width="1.0" opacity="0.2057142857142857" />
    <polyline points="434.6938775510204,197.26938775510206 434.1387755102041,197.40816326530611 433.72244897959183,197.82448979591837 433.58367346938775,198.3795918367347" fill="none" stroke="#3fb950" stroke-width="1.0" opacity="0.2057142857142857" />
    <polyline points="433.58367346938775,226.13469387755103 433.72244897959183,226.68979591836734 434.1387755102041,227.1061224489796 434.6938775510204,227.24489795918367" fill="none" stroke="#3fb950" stroke-width="1.0" opacity="0.2057142857142857" />
    <polyline points="573.469387755102,227.24489795918367 574.0244897959184,227.1061224489796" fill="none" stroke="#3fb950" stroke-width="1.0" opacity="0.2057142857142857" />
    <polyline points="671.5836734693878,185.05714285714288 671.7224489795918,184.50204081632654" fill="none" stroke="#3fb950" stroke-width="1.0" opacity="0.2057142857142857" />
    <polyline points="671.7224489795918,101.23673469387757 671.5836734693878,100.68163265306123 671.1673469387755,100.26530612244898 670.6122448979592,100.12653061224489" fill="none" stroke="#3fb950" stroke-width="1.0" opacity="0.2057142857142857" />
    <polyline points="642.8571428571429,100.12653061224489 642.3020408163266,100.26530612244898 641.8857142857142,100.68163265306123 641.7469387755102,101.23673469387757" fill="none" stroke="#3fb950" stroke-width="1.0" opacity="0.2057142857142857" />
    <polyline points="641.7469387755102,184.50204081632654 641.8857142857142,185.05714285714288 642.3020408163266,185.4734693877551 642.8571428571429,185.6122448979592" fill="none" stroke="#3fb950" stroke-width="1.0" opacity="0.2057142857142857" />
    <polyline points="670.6122448979592,185.6122448979592 671.1673469387755,185.4734693877551" fill="none" stroke="#3fb950" stroke-width="1.0" opacity="0.2057142857142857" />
    <polyline points="643.9673469387754,88.46938775510205 649.5183673469388,100.12653061224489 655.0693877551021,88.46938775510205 660.6204081632653,100.12653061224489 666.1714285714286,88.46938775510205" fill="none" stroke="#3fb950" stroke-width="1.0" opacity="0.2057142857142857" />
    <polyline points="296.8897959183673,226.68979591836734 297.02857142857147,226.13469387755103" fill="none" stroke="#3fb950" stroke-width="1.0" opacity="0.21" />
    <polyline points="297.02857142857147,198.3795918367347 296.8897959183673,197.82448979591837 296.47346938775513,197.40816326530611 295.9183673469388,197.26938775510206" fill="none" stroke="#3fb950" stroke-width="1.0" opacity="0.21" />
    <polyline points="157.14285714285714,197.26938775510206 156.58775510204083,197.40816326530611 156.17142857142858,197.82448979591837 156.0326530612245,198.3795918367347" fill="none" stroke="#3fb950" stroke-width="1.0" opacity="0.21" />
    <polyline points="156.0326530612245,226.13469387755103 156.17142857142858,226.68979591836734 156.58775510204083,227.1061224489796 157.14285714285714,227.24489795918367" fill="none" stroke="#3fb950" stroke-width="1.0" opacity="0.21" />
    <polyline points="295.9183673469388,227.24489795918367 296.47346938775513,227.1061224489796" fill="none" stroke="#3fb950" stroke-width="1.0" opacity="0.21" />
    <polyline points="574.4408163265306,226.68979591836734 574.5795918367347,226.13469387755103" fill="none" stroke="#3fb950" stroke-width="1.0" opacity="0.21" />
    <polyline points="574.5795918367347,198.3795918367347 574.4408163265306,197.82448979591837 574.0244897959184,197.40816326530611 573.469387755102,197.26938775510206" fill="none" stroke="#3fb950" stroke-width="1.0" opacity="0.21" />
    <polyline points="434.6938775510204,197.26938775510206 434.1387755102041,197.40816326530611 433.72244897959183,197.82448979591837 433.58367346938775,198.3795918367347" fill="none" stroke="#3fb950" stroke-width="1.0" opacity="0.21" />
    <polyline points="433.58367346938775,226.13469387755103 433.72244897959183,226.68979591836734 434.1387755102041,227.1061224489796 434.6938775510204,227.24489795918367" fill="none" stroke="#3fb950" stroke-width="1.0" opacity="0.21" />
    <polyline points="573.469387755102,227.24489795918367 574.0244897959184,227.1061224489796" fill="none" stroke="#3fb950" stroke-width="1.0" opacity="0.21" />
    <polyline points="671.5836734693878,185.05714285714288 671.7224489795918,184.50204081632654" fill="none" stroke="#3fb950" stroke-width="1.0" opacity="0.21" />
    <polyline points="671.7224489795918,101.23673469387757 671.5836734693878,100.68163265306123 671.1673469387755,100.26530612244898 670.6122448979592,100.12653061224489" fill="none" stroke="#3fb950" stroke-width="1.0" opacity="0.21" />
    <polyline points="642.8571428571429,100.12653061224489 642.3020408163266,100.26530612244898 641.8857142857142,100.68163265306123 641.7469387755102,101.23673469387757" fill="none" stroke="#3fb950" stroke-width="1.0" opacity="0.21" />
    <polyline points="641.7469387755102,184.50204081632654 641.8857142857142,185.05714285714288 642.3020408163266,185.4734693877551 642.8571428571429,185.6122448979592" fill="none" stroke="#3fb950" stroke-width="1.0" opacity="0.21" />
    <polyline points="670.6122448979592,185.6122448979592 671.1673469387755,185.4734693877551" fill="none" stroke="#3fb950" stroke-width="1.0" opacity="0.21" />
    <polyline points="643.9673469387754,88.46938775510205 649.5183673469388,100.12653061224489 655.0693877551021,88.46938775510205 660.6204081632653,100.12653061224489 666.1714285714286,88.46938775510205" fill="none" stroke="#3fb950" stroke-width="1.0" opacity="0.21" />
    <polyline points="296.8897959183673,226.68979591836734 297.02857142857147,226.13469387755103" fill="none" stroke="#3fb950" stroke-width="1.0" opacity="0.21428571428571427" />
    <polyline points="297.02857142857147,198.3795918367347 296.8897959183673,197.82448979591837 296.47346938775513,197.40816326530611 295.9183673469388,197.26938775510206" fill="none" stroke="#3fb950" stroke-width="1.0" opacity="0.21428571428571427" />
    <polyline points="157.14285714285714,197.26938775510206 156.58775510204083,197.40816326530611 156.17142857142858,197.82448979591837 156.0326530612245,198.3795918367347" fill="none" stroke="#3fb950" stroke-width="1.0" opacity="0.21428571428571427" />
    <polyline points="156.0326530612245,226.13469387755103 156.17142857142858,226.68979591836734 156.58775510204083,227.1061224489796 157.14285714285714,227.24489795918367" fill="none" stroke="#3fb950" stroke-width="1.0" opacity="0.21428571428571427" />
    <polyline points="295.9183673469388,227.24489795918367 296.47346938775513,227.1061224489796" fill="none" stroke="#3fb950" stroke-width="1.0" opacity="0.21428571428571427" />
    <polyline points="574.4408163265306,226.68979591836734 574.5795918367347,226.13469387755103" fill="none" stroke="#3fb950" stroke-width="1.0" opacity="0.21428571428571427" />
    <polyline points="574.5795918367347,198.3795918367347 574.4408163265306,197.82448979591837 574.0244897959184,197.40816326530611 573.469387755102,197.26938775510206" fill="none" stroke="#3fb950" stroke-width="1.0" opacity="0.21428571428571427" />
    <polyline points="434.6938775510204,197.26938775510206 434.1387755102041,197.40816326530611 433.72244897959183,197.82448979591837 433.58367346938775,198.3795918367347" fill="none" stroke="#3fb950" stroke-width="1.0" opacity="0.21428571428571427" />
    <polyline points="433.58367346938775,226.13469387755103 433.72244897959183,226.68979591836734 434.1387755102041,227.1061224489796 434.6938775510204,227.24489795918367" fill="none" stroke="#3fb950" stroke-width="1.0" opacity="0.21428571428571427" />
    <polyline points="573.469387755102,227.24489795918367 574.0244897959184,227.1061224489796" fill="none" stroke="#3fb950" stroke-width="1.0" opacity="0.21428571428571427" />
    <polyline points="671.5836734693878,185.05714285714288 671.7224489795918,184.50204081632654" fill="none" stroke="#3fb950" stroke-width="1.0" opacity="0.21428571428571427" />
    <polyline points="671.7224489795918,101.23673469387757 671.5836734693878,100.68163265306123 671.1673469387755,100.26530612244898 670.6122448979592,100.12653061224489" fill="none" stroke="#3fb950" stroke-width="1.0" opacity="0.21428571428571427" />
    <polyline points="642.8571428571429,100.12653061224489 642.3020408163266,100.26530612244898 641.8857142857142,100.68163265306123 641.7469387755102,101.23673469387757" fill="none" stroke="#3fb950" stroke-width="1.0" opacity="0.21428571428571427" />
    <polyline points="641.7469387755102,184.50204081632654 641.8857142857142,185.05714285714288 642.3020408163266,185.4734693877551 642.8571428571429,185.6122448979592" fill="none" stroke="#3fb950" stroke-width="1.0" opacity="0.21428571428571427" />
    <polyline points="670.6122448979592,185.6122448979592 671.1673469387755,185.4734693877551" fill="none" stroke="#3fb950" stroke-width="1.0" opacity="0.21428571428571427" />
    <polyline points="643.9673469387754,88.46938775510205 649.5183673469388,100.12653061224489 655.0693877551021,88.46938775510205 660.6204081632653,100.12653061224489 666.1714285714286,88.46938775510205" fill="none" stroke="#3fb950" stroke-width="1.0" opacity="0.21428571428571427" />
    <polyline points="296.8897959183673,226.68979591836734 297.02857142857147,226.13469387755103" fill="none" stroke="#3fb950" stroke-width="1.0" opacity="0.21857142857142856" />
    <polyline points="297.02857142857147,198.3795918367347 296.8897959183673,197.82448979591837 296.47346938775513,197.40816326530611 295.9183673469388,197.26938775510206" fill="none" stroke="#3fb950" stroke-width="1.0" opacity="0.21857142857142856" />
    <polyline points="157.14285714285714,197.26938775510206 156.58775510204083,197.40816326530611 156.17142857142858,197.82448979591837 156.0326530612245,198.3795918367347" fill="none" stroke="#3fb950" stroke-width="1.0" opacity="0.21857142857142856" />
    <polyline points="156.0326530612245,226.13469387755103 156.17142857142858,226.68979591836734 156.58775510204083,227.1061224489796 157.14285714285714,227.24489795918367" fill="none" stroke="#3fb950" stroke-width="1.0" opacity="0.21857142857142856" />
    <polyline points="295.9183673469388,227.24489795918367 296.47346938775513,227.1061224489796" fill="none" stroke="#3fb950" stroke-width="1.0" opacity="0.21857142857142856" />
    <polyline points="574.4408163265306,226.68979591836734 574.5795918367347,226.13469387755103" fill="none" stroke="#3fb950" stroke-width="1.0" opacity="0.21857142857142856" />
    <polyline points="574.5795918367347,198.3795918367347 574.4408163265306,197.82448979591837 574.0244897959184,197.40816326530611 573.469387755102,197.26938775510206" fill="none" stroke="#3fb950" stroke-width="1.0" opacity="0.21857142857142856" />
    <polyline points="434.6938775510204,197.26938775510206 434.1387755102041,197.40816326530611 433.72244897959183,197.82448979591837 433.58367346938775,198.3795918367347" fill="none" stroke="#3fb950" stroke-width="1.0" opacity="0.21857142857142856" />
    <polyline points="433.58367346938775,226.13469387755103 433.72244897959183,226.68979591836734 434.1387755102041,227.1061224489796 434.6938775510204,227.24489795918367" fill="none" stroke="#3fb950" stroke-width="1.0" opacity="0.21857142857142856" />
    <polyline points="573.469387755102,227.24489795918367 574.0244897959184,227.1061224489796" fill="none" stroke="#3fb950" stroke-width="1.0" opacity="0.21857142857142856" />
    <polyline points="671.5836734693878,185.05714285714288 671.7224489795918,184.50204081632654" fill="none" stroke="#3fb950" stroke-width="1.0" opacity="0.21857142857142856" />
    <polyline points="671.7224489795918,101.23673469387757 671.5836734693878,100.68163265306123 671.1673469387755,100.26530612244898 670.6122448979592,100.12653061224489" fill="none" stroke="#3fb950" stroke-width="1.0" opacity="0.21857142857142856" />
    <polyline points="642.8571428571429,100.12653061224489 642.3020408163266,100.26530612244898 641.8857142857142,100.68163265306123 641.7469387755102,101.23673469387757" fill="none" stroke="#3fb950" stroke-width="1.0" opacity="0.21857142857142856" />
    <polyline points="641.7469387755102,184.50204081632654 641.8857142857142,185.05714285714288 642.3020408163266,185.4734693877551 642.8571428571429,185.6122448979592" fill="none" stroke="#3fb950" stroke-width="1.0" opacity="0.21857142857142856" />
    <polyline points="670.6122448979592,185.6122448979592 671.1673469387755,185.4734693877551" fill="none" stroke="#3fb950" stroke-width="1.0" opacity="0.21857142857142856" />
    <polyline points="643.9673469387754,88.46938775510205 649.5183673469388,100.12653061224489 655.0693877551021,88.46938775510205 660.6204081632653,100.12653061224489 666.1714285714286,88.46938775510205" fill="none" stroke="#3fb950" stroke-width="1.0" opacity="0.21857142857142856" />
    <polyline points="296.8897959183673,226.68979591836734 297.02857142857147,226.13469387755103" fill="none" stroke="#3fb950" stroke-width="1.0" opacity="0.22285714285714286" />
    <polyline points="297.02857142857147,198.3795918367347 296.8897959183673,197.82448979591837 296.47346938775513,197.40816326530611 295.9183673469388,197.26938775510206" fill="none" stroke="#3fb950" stroke-width="1.0" opacity="0.22285714285714286" />
    <polyline points="157.14285714285714,197.26938775510206 156.58775510204083,197.40816326530611 156.17142857142858,197.82448979591837 156.0326530612245,198.3795918367347" fill="none" stroke="#3fb950" stroke-width="1.0" opacity="0.22285714285714286" />
    <polyline points="156.0326530612245,226.13469387755103 156.17142857142858,226.68979591836734 156.58775510204083,227.1061224489796 157.14285714285714,227.24489795918367" fill="none" stroke="#3fb950" stroke-width="1.0" opacity="0.22285714285714286" />
    <polyline points="295.9183673469388,227.24489795918367 296.47346938775513,227.1061224489796" fill="none" stroke="#3fb950" stroke-width="1.0" opacity="0.22285714285714286" />
    <polyline points="574.4408163265306,226.68979591836734 574.5795918367347,226.13469387755103" fill="none" stroke="#3fb950" stroke-width="1.0" opacity="0.22285714285714286" />
    <polyline points="574.5795918367347,198.3795918367347 574.4408163265306,197.82448979591837 574.0244897959184,197.40816326530611 573.469387755102,197.26938775510206" fill="none" stroke="#3fb950" stroke-width="1.0" opacity="0.22285714285714286" />
    <polyline points="434.6938775510204,197.26938775510206 434.1387755102041,197.40816326530611 433.72244897959183,197.82448979591837 433.58367346938775,198.3795918367347" fill="none" stroke="#3fb950" stroke-width="1.0" opacity="0.22285714285714286" />
    <polyline points="433.58367346938775,226.13469387755103 433.72244897959183,226.68979591836734 434.1387755102041,227.1061224489796 434.6938775510204,227.24489795918367" fill="none" stroke="#3fb950" stroke-width="1.0" opacity="0.22285714285714286" />
    <polyline points="573.469387755102,227.24489795918367 574.0244897959184,227.1061224489796" fill="none" stroke="#3fb950" stroke-width="1.0" opacity="0.22285714285714286" />
    <polyline points="671.5836734693878,185.05714285714288 671.7224489795918,184.50204081632654" fill="none" stroke="#3fb950" stroke-width="1.0" opacity="0.22285714285714286" />
    <polyline points="671.7224489795918,101.23673469387757 671.5836734693878,100.68163265306123 671.1673469387755,100.26530612244898 670.6122448979592,100.12653061224489" fill="none" stroke="#3fb950" stroke-width="1.0" opacity="0.22285714285714286" />
    <polyline points="642.8571428571429,100.12653061224489 642.3020408163266,100.26530612244898 641.8857142857142,100.68163265306123 641.7469387755102,101.23673469387757" fill="none" stroke="#3fb950" stroke-width="1.0" opacity="0.22285714285714286" />
    <polyline points="641.7469387755102,184.50204081632654 641.8857142857142,185.05714285714288 642.3020408163266,185.4734693877551 642.8571428571429,185.6122448979592" fill="none" stroke="#3fb950" stroke-width="1.0" opacity="0.22285714285714286" />
    <polyline points="670.6122448979592,185.6122448979592 671.1673469387755,185.4734693877551" fill="none" stroke="#3fb950" stroke-width="1.0" opacity="0.22285714285714286" />
    <polyline points="643.9673469387754,88.46938775510205 649.5183673469388,100.12653061224489 655.0693877551021,88.46938775510205 660.6204081632653,100.12653061224489 666.1714285714286,88.46938775510205" fill="none" stroke="#3fb950" stroke-width="1.0" opacity="0.22285714285714286" />
    <polyline points="296.8897959183673,226.68979591836734 297.02857142857147,226.13469387755103" fill="none" stroke="#3fb950" stroke-width="1.0" opacity="0.22714285714285715" />
    <polyline points="297.02857142857147,198.3795918367347 296.8897959183673,197.82448979591837 296.47346938775513,197.40816326530611 295.9183673469388,197.26938775510206" fill="none" stroke="#3fb950" stroke-width="1.0" opacity="0.22714285714285715" />
    <polyline points="157.14285714285714,197.26938775510206 156.58775510204083,197.40816326530611 156.17142857142858,197.82448979591837 156.0326530612245,198.3795918367347" fill="none" stroke="#3fb950" stroke-width="1.0" opacity="0.22714285714285715" />
    <polyline points="156.0326530612245,226.13469387755103 156.17142857142858,226.68979591836734 156.58775510204083,227.1061224489796 157.14285714285714,227.24489795918367" fill="none" stroke="#3fb950" stroke-width="1.0" opacity="0.22714285714285715" />
    <polyline points="295.9183673469388,227.24489795918367 296.47346938775513,227.1061224489796" fill="none" stroke="#3fb950" stroke-width="1.0" opacity="0.22714285714285715" />
    <polyline points="574.4408163265306,226.68979591836734 574.5795918367347,226.13469387755103" fill="none" stroke="#3fb950" stroke-width="1.0" opacity="0.22714285714285715" />
    <polyline points="574.5795918367347,198.3795918367347 574.4408163265306,197.82448979591837 574.0244897959184,197.40816326530611 573.469387755102,197.26938775510206" fill="none" stroke="#3fb950" stroke-width="1.0" opacity="0.22714285714285715" />
    <polyline points="434.6938775510204,197.26938775510206 434.1387755102041,197.40816326530611 433.72244897959183,197.82448979591837 433.58367346938775,198.3795918367347" fill="none" stroke="#3fb950" stroke-width="1.0" opacity="0.22714285714285715" />
    <polyline points="433.58367346938775,226.13469387755103 433.72244897959183,226.68979591836734 434.1387755102041,227.1061224489796 434.6938775510204,227.24489795918367" fill="none" stroke="#3fb950" stroke-width="1.0" opacity="0.22714285714285715" />
    <polyline points="573.469387755102,227.24489795918367 574.0244897959184,227.1061224489796" fill="none" stroke="#3fb950" stroke-width="1.0" opacity="0.22714285714285715" />
    <polyline points="671.5836734693878,185.05714285714288 671.7224489795918,184.50204081632654" fill="none" stroke="#3fb950" stroke-width="1.0" opacity="0.22714285714285715" />
    <polyline points="671.7224489795918,101.23673469387757 671.5836734693878,100.68163265306123 671.1673469387755,100.26530612244898 670.6122448979592,100.12653061224489" fill="none" stroke="#3fb950" stroke-width="1.0" opacity="0.22714285714285715" />
    <polyline points="642.8571428571429,100.12653061224489 642.3020408163266,100.26530612244898 641.8857142857142,100.68163265306123 641.7469387755102,101.23673469387757" fill="none" stroke="#3fb950" stroke-width="1.0" opacity="0.22714285714285715" />
    <polyline points="641.7469387755102,184.50204081632654 641.8857142857142,185.05714285714288 642.3020408163266,185.4734693877551 642.8571428571429,185.6122448979592" fill="none" stroke="#3fb950" stroke-width="1.0" opacity="0.22714285714285715" />
    <polyline points="670.6122448979592,185.6122448979592 671.1673469387755,185.4734693877551" fill="none" stroke="#3fb950" stroke-width="1.0" opacity="0.22714285714285715" />
    <polyline points="643.9673469387754,88.46938775510205 649.5183673469388,100.12653061224489 655.0693877551021,88.46938775510205 660.6204081632653,100.12653061224489 666.1714285714286,88.46938775510205" fill="none" stroke="#3fb950" stroke-width="1.0" opacity="0.22714285714285715" />
    <polyline points="296.8897959183673,226.68979591836734 297.02857142857147,226.13469387755103" fill="none" stroke="#3fb950" stroke-width="1.0" opacity="0.23142857142857143" />
    <polyline points="297.02857142857147,198.3795918367347 296.8897959183673,197.82448979591837 296.47346938775513,197.40816326530611 295.9183673469388,197.26938775510206" fill="none" stroke="#3fb950" stroke-width="1.0" opacity="0.23142857142857143" />
    <polyline points="157.14285714285714,197.26938775510206 156.58775510204083,197.40816326530611 156.17142857142858,197.82448979591837 156.0326530612245,198.3795918367347" fill="none" stroke="#3fb950" stroke-width="1.0" opacity="0.23142857142857143" />
    <polyline points="156.0326530612245,226.13469387755103 156.17142857142858,226.68979591836734 156.58775510204083,227.1061224489796 157.14285714285714,227.24489795918367" fill="none" stroke="#3fb950" stroke-width="1.0" opacity="0.23142857142857143" />
    <polyline points="295.9183673469388,227.24489795918367 296.47346938775513,227.1061224489796" fill="none" stroke="#3fb950" stroke-width="1.0" opacity="0.23142857142857143" />
    <polyline points="574.4408163265306,226.68979591836734 574.5795918367347,226.13469387755103" fill="none" stroke="#3fb950" stroke-width="1.0" opacity="0.23142857142857143" />
    <polyline points="574.5795918367347,198.3795918367347 574.4408163265306,197.82448979591837 574.0244897959184,197.40816326530611 573.469387755102,197.26938775510206" fill="none" stroke="#3fb950" stroke-width="1.0" opacity="0.23142857142857143" />
    <polyline points="434.6938775510204,197.26938775510206 434.1387755102041,197.40816326530611 433.72244897959183,197.82448979591837 433.58367346938775,198.3795918367347" fill="none" stroke="#3fb950" stroke-width="1.0" opacity="0.23142857142857143" />
    <polyline points="433.58367346938775,226.13469387755103 433.72244897959183,226.68979591836734 434.1387755102041,227.1061224489796 434.6938775510204,227.24489795918367" fill="none" stroke="#3fb950" stroke-width="1.0" opacity="0.23142857142857143" />
    <polyline points="573.469387755102,227.24489795918367 574.0244897959184,227.1061224489796" fill="none" stroke="#3fb950" stroke-width="1.0" opacity="0.23142857142857143" />
    <polyline points="671.5836734693878,185.05714285714288 671.7224489795918,184.50204081632654" fill="none" stroke="#3fb950" stroke-width="1.0" opacity="0.23142857142857143" />
    <polyline points="671.7224489795918,101.23673469387757 671.5836734693878,100.68163265306123 671.1673469387755,100.26530612244898 670.6122448979592,100.12653061224489" fill="none" stroke="#3fb950" stroke-width="1.0" opacity="0.23142857142857143" />
    <polyline points="642.8571428571429,100.12653061224489 642.3020408163266,100.26530612244898 641.8857142857142,100.68163265306123 641.7469387755102,101.23673469387757" fill="none" stroke="#3fb950" stroke-width="1.0" opacity="0.23142857142857143" />
    <polyline points="641.7469387755102,184.50204081632654 641.8857142857142,185.05714285714288 642.3020408163266,185.4734693877551 642.8571428571429,185.6122448979592" fill="none" stroke="#3fb950" stroke-width="1.0" opacity="0.23142857142857143" />
    <polyline points="670.6122448979592,185.6122448979592 671.1673469387755,185.4734693877551" fill="none" stroke="#3fb950" stroke-width="1.0" opacity="0.23142857142857143" />
    <polyline points="643.9673469387754,88.46938775510205 649.5183673469388,100.12653061224489 655.0693877551021,88.46938775510205 660.6204081632653,100.12653061224489 666.1714285714286,88.46938775510205" fill="none" stroke="#3fb950" stroke-width="1.0" opacity="0.23142857142857143" />
    <polyline points="296.8897959183673,226.68979591836734 297.02857142857147,226.13469387755103" fill="none" stroke="#3fb950" stroke-width="1.0" opacity="0.2357142857142857" />
    <polyline points="297.02857142857147,198.3795918367347 296.8897959183673,197.82448979591837 296.47346938775513,197.40816326530611 295.9183673469388,197.26938775510206" fill="none" stroke="#3fb950" stroke-width="1.0" opacity="0.2357142857142857" />
    <polyline points="157.14285714285714,197.26938775510206 156.58775510204083,197.40816326530611 156.17142857142858,197.82448979591837 156.0326530612245,198.3795918367347" fill="none" stroke="#3fb950" stroke-width="1.0" opacity="0.2357142857142857" />
    <polyline points="156.0326530612245,226.13469387755103 156.17142857142858,226.68979591836734 156.58775510204083,227.1061224489796 157.14285714285714,227.24489795918367" fill="none" stroke="#3fb950" stroke-width="1.0" opacity="0.2357142857142857" />
    <polyline points="295.9183673469388,227.24489795918367 296.47346938775513,227.1061224489796" fill="none" stroke="#3fb950" stroke-width="1.0" opacity="0.2357142857142857" />
    <polyline points="574.4408163265306,226.68979591836734 574.5795918367347,226.13469387755103" fill="none" stroke="#3fb950" stroke-width="1.0" opacity="0.2357142857142857" />
    <polyline points="574.5795918367347,198.3795918367347 574.4408163265306,197.82448979591837 574.0244897959184,197.40816326530611 573.469387755102,197.26938775510206" fill="none" stroke="#3fb950" stroke-width="1.0" opacity="0.2357142857142857" />
    <polyline points="434.6938775510204,197.26938775510206 434.1387755102041,197.40816326530611 433.72244897959183,197.82448979591837 433.58367346938775,198.3795918367347" fill="none" stroke="#3fb950" stroke-width="1.0" opacity="0.2357142857142857" />
    <polyline points="433.58367346938775,226.13469387755103 433.72244897959183,226.68979591836734 434.1387755102041,227.1061224489796 434.6938775510204,227.24489795918367" fill="none" stroke="#3fb950" stroke-width="1.0" opacity="0.2357142857142857" />
    <polyline points="573.469387755102,227.24489795918367 574.0244897959184,227.1061224489796" fill="none" stroke="#3fb950" stroke-width="1.0" opacity="0.2357142857142857" />
    <polyline points="671.5836734693878,185.05714285714288 671.7224489795918,184.50204081632654" fill="none" stroke="#3fb950" stroke-width="1.0" opacity="0.2357142857142857" />
    <polyline points="671.7224489795918,101.23673469387757 671.5836734693878,100.68163265306123 671.1673469387755,100.26530612244898 670.6122448979592,100.12653061224489" fill="none" stroke="#3fb950" stroke-width="1.0" opacity="0.2357142857142857" />
    <polyline points="642.8571428571429,100.12653061224489 642.3020408163266,100.26530612244898 641.8857142857142,100.68163265306123 641.7469387755102,101.23673469387757" fill="none" stroke="#3fb950" stroke-width="1.0" opacity="0.2357142857142857" />
    <polyline points="641.7469387755102,184.50204081632654 641.8857142857142,185.05714285714288 642.3020408163266,185.4734693877551 642.8571428571429,185.6122448979592" fill="none" stroke="#3fb950" stroke-width="1.0" opacity="0.2357142857142857" />
    <polyline points="670.6122448979592,185.6122448979592 671.1673469387755,185.4734693877551" fill="none" stroke="#3fb950" stroke-width="1.0" opacity="0.2357142857142857" />
    <polyline points="643.9673469387754,88.46938775510205 649.5183673469388,100.12653061224489 655.0693877551021,88.46938775510205 660.6204081632653,100.12653061224489 666.1714285714286,88.46938775510205" fill="none" stroke="#3fb950" stroke-width="1.0" opacity="0.2357142857142857" />
    <polyline points="296.8897959183673,226.68979591836734 297.02857142857147,226.13469387755103" fill="none" stroke="#3fb950" stroke-width="1.0" opacity="0.24" />
    <polyline points="297.02857142857147,198.3795918367347 296.8897959183673,197.82448979591837 296.47346938775513,197.40816326530611 295.9183673469388,197.26938775510206" fill="none" stroke="#3fb950" stroke-width="1.0" opacity="0.24" />
    <polyline points="157.14285714285714,197.26938775510206 156.58775510204083,197.40816326530611 156.17142857142858,197.82448979591837 156.0326530612245,198.3795918367347" fill="none" stroke="#3fb950" stroke-width="1.0" opacity="0.24" />
    <polyline points="156.0326530612245,226.13469387755103 156.17142857142858,226.68979591836734 156.58775510204083,227.1061224489796 157.14285714285714,227.24489795918367" fill="none" stroke="#3fb950" stroke-width="1.0" opacity="0.24" />
    <polyline points="295.9183673469388,227.24489795918367 296.47346938775513,227.1061224489796" fill="none" stroke="#3fb950" stroke-width="1.0" opacity="0.24" />
    <polyline points="574.4408163265306,226.68979591836734 574.5795918367347,226.13469387755103" fill="none" stroke="#3fb950" stroke-width="1.0" opacity="0.24" />
    <polyline points="574.5795918367347,198.3795918367347 574.4408163265306,197.82448979591837 574.0244897959184,197.40816326530611 573.469387755102,197.26938775510206" fill="none" stroke="#3fb950" stroke-width="1.0" opacity="0.24" />
    <polyline points="434.6938775510204,197.26938775510206 434.1387755102041,197.40816326530611 433.72244897959183,197.82448979591837 433.58367346938775,198.3795918367347" fill="none" stroke="#3fb950" stroke-width="1.0" opacity="0.24" />
    <polyline points="433.58367346938775,226.13469387755103 433.72244897959183,226.68979591836734 434.1387755102041,227.1061224489796 434.6938775510204,227.24489795918367" fill="none" stroke="#3fb950" stroke-width="1.0" opacity="0.24" />
    <polyline points="573.469387755102,227.24489795918367 574.0244897959184,227.1061224489796" fill="none" stroke="#3fb950" stroke-width="1.0" opacity="0.24" />
    <polyline points="671.5836734693878,185.05714285714288 671.7224489795918,184.50204081632654" fill="none" stroke="#3fb950" stroke-width="1.0" opacity="0.24" />
    <polyline points="671.7224489795918,101.23673469387757 671.5836734693878,100.68163265306123 671.1673469387755,100.26530612244898 670.6122448979592,100.12653061224489" fill="none" stroke="#3fb950" stroke-width="1.0" opacity="0.24" />
    <polyline points="642.8571428571429,100.12653061224489 642.3020408163266,100.26530612244898 641.8857142857142,100.68163265306123 641.7469387755102,101.23673469387757" fill="none" stroke="#3fb950" stroke-width="1.0" opacity="0.24" />
    <polyline points="641.7469387755102,184.50204081632654 641.8857142857142,185.05714285714288 642.3020408163266,185.4734693877551 642.8571428571429,185.6122448979592" fill="none" stroke="#3fb950" stroke-width="1.0" opacity="0.24" />
    <polyline points="670.6122448979592,185.6122448979592 671.1673469387755,185.4734693877551" fill="none" stroke="#3fb950" stroke-width="1.0" opacity="0.24" />
    <polyline points="643.9673469387754,88.46938775510205 649.5183673469388,100.12653061224489 655.0693877551021,88.46938775510205 660.6204081632653,100.12653061224489 666.1714285714286,88.46938775510205" fill="none" stroke="#3fb950" stroke-width="1.0" opacity="0.24" />
    <polyline points="296.8897959183673,226.68979591836734 297.02857142857147,226.13469387755103" fill="none" stroke="#3fb950" stroke-width="1.0" opacity="0.24428571428571427" />
    <polyline points="297.02857142857147,198.3795918367347 296.8897959183673,197.82448979591837 296.47346938775513,197.40816326530611 295.9183673469388,197.26938775510206" fill="none" stroke="#3fb950" stroke-width="1.0" opacity="0.24428571428571427" />
    <polyline points="157.14285714285714,197.26938775510206 156.58775510204083,197.40816326530611 156.17142857142858,197.82448979591837 156.0326530612245,198.3795918367347" fill="none" stroke="#3fb950" stroke-width="1.0" opacity="0.24428571428571427" />
    <polyline points="156.0326530612245,226.13469387755103 156.17142857142858,226.68979591836734 156.58775510204083,227.1061224489796 157.14285714285714,227.24489795918367" fill="none" stroke="#3fb950" stroke-width="1.0" opacity="0.24428571428571427" />
    <polyline points="295.9183673469388,227.24489795918367 296.47346938775513,227.1061224489796" fill="none" stroke="#3fb950" stroke-width="1.0" opacity="0.24428571428571427" />
    <polyline points="574.4408163265306,226.68979591836734 574.5795918367347,226.13469387755103" fill="none" stroke="#3fb950" stroke-width="1.0" opacity="0.24428571428571427" />
    <polyline points="574.5795918367347,198.3795918367347 574.4408163265306,197.82448979591837 574.0244897959184,197.40816326530611 573.469387755102,197.26938775510206" fill="none" stroke="#3fb950" stroke-width="1.0" opacity="0.24428571428571427" />
    <polyline points="434.6938775510204,197.26938775510206 434.1387755102041,197.40816326530611 433.72244897959183,197.82448979591837 433.58367346938775,198.3795918367347" fill="none" stroke="#3fb950" stroke-width="1.0" opacity="0.24428571428571427" />
    <polyline points="433.58367346938775,226.13469387755103 433.72244897959183,226.68979591836734 434.1387755102041,227.1061224489796 434.6938775510204,227.24489795918367" fill="none" stroke="#3fb950" stroke-width="1.0" opacity="0.24428571428571427" />
    <polyline points="573.469387755102,227.24489795918367 574.0244897959184,227.1061224489796" fill="none" stroke="#3fb950" stroke-width="1.0" opacity="0.24428571428571427" />
    <polyline points="574.4408163265306,226.68979591836734 574.5795918367347,226.13469387755103" fill="none" stroke="#3fb950" stroke-width="1.0" opacity="0.24857142857142855" />
    <polyline points="574.5795918367347,198.3795918367347 574.4408163265306,197.82448979591837 574.0244897959184,197.40816326530611 573.469387755102,197.26938775510206" fill="none" stroke="#3fb950" stroke-width="1.0" opacity="0.24857142857142855" />
    <polyline points="434.6938775510204,197.26938775510206 434.1387755102041,197.40816326530611 433.72244897959183,197.82448979591837 433.58367346938775,198.3795918367347" fill="none" stroke="#3fb950" stroke-width="1.0" opacity="0.24857142857142855" />
    <polyline points="433.58367346938775,226.13469387755103 433.72244897959183,226.68979591836734 434.1387755102041,227.1061224489796 434.6938775510204,227.24489795918367" fill="none" stroke="#3fb950" stroke-width="1.0" opacity="0.24857142857142855" />
    <polyline points="573.469387755102,227.24489795918367 574.0244897959184,227.1061224489796" fill="none" stroke="#3fb950" stroke-width="1.0" opacity="0.24857142857142855" />
    <polyline points="574.4408163265306,226.68979591836734 574.5795918367347,226.13469387755103" fill="none" stroke="#3fb950" stroke-width="1.0" opacity="0.25285714285714284" />
    <polyline points="574.5795918367347,198.3795918367347 574.4408163265306,197.82448979591837 574.0244897959184,197.40816326530611 573.469387755102,197.26938775510206" fill="none" stroke="#3fb950" stroke-width="1.0" opacity="0.25285714285714284" />
    <polyline points="434.6938775510204,197.26938775510206 434.1387755102041,197.40816326530611 433.72244897959183,197.82448979591837 433.58367346938775,198.3795918367347" fill="none" stroke="#3fb950" stroke-width="1.0" opacity="0.25285714285714284" />
    <polyline points="433.58367346938775,226.13469387755103 433.72244897959183,226.68979591836734 434.1387755102041,227.1061224489796 434.6938775510204,227.24489795918367" fill="none" stroke="#3fb950" stroke-width="1.0" opacity="0.25285714285714284" />
    <polyline points="573.469387755102,227.24489795918367 574.0244897959184,227.1061224489796" fill="none" stroke="#3fb950" stroke-width="1.0" opacity="0.25285714285714284" />
    <polyline points="574.4408163265306,226.68979591836734 574.5795918367347,226.13469387755103" fill="none" stroke="#3fb950" stroke-width="1.0" opacity="0.2571428571428571" />
    <polyline points="574.5795918367347,198.3795918367347 574.4408163265306,197.82448979591837 574.0244897959184,197.40816326530611 573.469387755102,197.26938775510206" fill="none" stroke="#3fb950" stroke-width="1.0" opacity="0.2571428571428571" />
    <polyline points="434.6938775510204,197.26938775510206 434.1387755102041,197.40816326530611 433.72244897959183,197.82448979591837 433.58367346938775,198.3795918367347" fill="none" stroke="#3fb950" stroke-width="1.0" opacity="0.2571428571428571" />
    <polyline points="433.58367346938775,226.13469387755103 433.72244897959183,226.68979591836734 434.1387755102041,227.1061224489796 434.6938775510204,227.24489795918367" fill="none" stroke="#3fb950" stroke-width="1.0" opacity="0.2571428571428571" />
    <polyline points="573.469387755102,227.24489795918367 574.0244897959184,227.1061224489796" fill="none" stroke="#3fb950" stroke-width="1.0" opacity="0.2571428571428571" />
    <polyline points="574.4408163265306,226.68979591836734 574.5795918367347,226.13469387755103" fill="none" stroke="#3fb950" stroke-width="1.0" opacity="0.26142857142857145" />
    <polyline points="574.5795918367347,198.3795918367347 574.4408163265306,197.82448979591837 574.0244897959184,197.40816326530611 573.469387755102,197.26938775510206" fill="none" stroke="#3fb950" stroke-width="1.0" opacity="0.26142857142857145" />
    <polyline points="434.6938775510204,197.26938775510206 434.1387755102041,197.40816326530611 433.72244897959183,197.82448979591837 433.58367346938775,198.3795918367347" fill="none" stroke="#3fb950" stroke-width="1.0" opacity="0.26142857142857145" />
    <polyline points="433.58367346938775,226.13469387755103 433.72244897959183,226.68979591836734 434.1387755102041,227.1061224489796 434.6938775510204,227.24489795918367" fill="none" stroke="#3fb950" stroke-width="1.0" opacity="0.26142857142857145" />
    <polyline points="573.469387755102,227.24489795918367 574.0244897959184,227.1061224489796" fill="none" stroke="#3fb950" stroke-width="1.0" opacity="0.26142857142857145" />
    <polyline points="574.4408163265306,226.68979591836734 574.5795918367347,226.13469387755103" fill="none" stroke="#3fb950" stroke-width="1.0" opacity="0.2657142857142857" />
    <polyline points="574.5795918367347,198.3795918367347 574.4408163265306,197.82448979591837 574.0244897959184,197.40816326530611 573.469387755102,197.26938775510206" fill="none" stroke="#3fb950" stroke-width="1.0" opacity="0.2657142857142857" />
    <polyline points="434.6938775510204,197.26938775510206 434.1387755102041,197.40816326530611 433.72244897959183,197.82448979591837 433.58367346938775,198.3795918367347" fill="none" stroke="#3fb950" stroke-width="1.0" opacity="0.2657142857142857" />
    <polyline points="433.58367346938775,226.13469387755103 433.72244897959183,226.68979591836734 434.1387755102041,227.1061224489796 434.6938775510204,227.24489795918367" fill="none" stroke="#3fb950" stroke-width="1.0" opacity="0.2657142857142857" />
    <polyline points="573.469387755102,227.24489795918367 574.0244897959184,227.1061224489796" fill="none" stroke="#3fb950" stroke-width="1.0" opacity="0.2657142857142857" />
    <polyline points="574.4408163265306,226.68979591836734 574.5795918367347,226.13469387755103" fill="none" stroke="#3fb950" stroke-width="1.0" opacity="0.27" />
    <polyline points="574.5795918367347,198.3795918367347 574.4408163265306,197.82448979591837 574.0244897959184,197.40816326530611 573.469387755102,197.26938775510206" fill="none" stroke="#3fb950" stroke-width="1.0" opacity="0.27" />
    <polyline points="434.6938775510204,197.26938775510206 434.1387755102041,197.40816326530611 433.72244897959183,197.82448979591837 433.58367346938775,198.3795918367347" fill="none" stroke="#3fb950" stroke-width="1.0" opacity="0.27" />
    <polyline points="433.58367346938775,226.13469387755103 433.72244897959183,226.68979591836734 434.1387755102041,227.1061224489796 434.6938775510204,227.24489795918367" fill="none" stroke="#3fb950" stroke-width="1.0" opacity="0.27" />
    <polyline points="573.469387755102,227.24489795918367 574.0244897959184,227.1061224489796" fill="none" stroke="#3fb950" stroke-width="1.0" opacity="0.27" />
    <polyline points="574.4408163265306,226.68979591836734 574.5795918367347,226.13469387755103" fill="none" stroke="#3fb950" stroke-width="1.0" opacity="0.2742857142857143" />
    <polyline points="574.5795918367347,198.3795918367347 574.4408163265306,197.82448979591837 574.0244897959184,197.40816326530611 573.469387755102,197.26938775510206" fill="none" stroke="#3fb950" stroke-width="1.0" opacity="0.2742857142857143" />
    <polyline points="434.6938775510204,197.26938775510206 434.1387755102041,197.40816326530611 433.72244897959183,197.82448979591837 433.58367346938775,198.3795918367347" fill="none" stroke="#3fb950" stroke-width="1.0" opacity="0.2742857142857143" />
    <polyline points="433.58367346938775,226.13469387755103 433.72244897959183,226.68979591836734 434.1387755102041,227.1061224489796 434.6938775510204,227.24489795918367" fill="none" stroke="#3fb950" stroke-width="1.0" opacity="0.2742857142857143" />
    <polyline points="573.469387755102,227.24489795918367 574.0244897959184,227.1061224489796" fill="none" stroke="#3fb950" stroke-width="1.0" opacity="0.2742857142857143" />
    <polyline points="574.4408163265306,226.68979591836734 574.5795918367347,226.13469387755103" fill="none" stroke="#3fb950" stroke-width="1.0" opacity="0.2785714285714286" />
    <polyline points="574.5795918367347,198.3795918367347 574.4408163265306,197.82448979591837 574.0244897959184,197.40816326530611 573.469387755102,197.26938775510206" fill="none" stroke="#3fb950" stroke-width="1.0" opacity="0.2785714285714286" />
    <polyline points="434.6938775510204,197.26938775510206 434.1387755102041,197.40816326530611 433.72244897959183,197.82448979591837 433.58367346938775,198.3795918367347" fill="none" stroke="#3fb950" stroke-width="1.0" opacity="0.2785714285714286" />
    <polyline points="433.58367346938775,226.13469387755103 433.72244897959183,226.68979591836734 434.1387755102041,227.1061224489796 434.6938775510204,227.24489795918367" fill="none" stroke="#3fb950" stroke-width="1.0" opacity="0.2785714285714286" />
    <polyline points="573.469387755102,227.24489795918367 574.0244897959184,227.1061224489796" fill="none" stroke="#3fb950" stroke-width="1.0" opacity="0.2785714285714286" />
    <polyline points="574.4408163265306,226.68979591836734 574.5795918367347,226.13469387755103" fill="none" stroke="#3fb950" stroke-width="1.0" opacity="0.2828571428571428" />
    <polyline points="574.5795918367347,198.3795918367347 574.4408163265306,197.82448979591837 574.0244897959184,197.40816326530611 573.469387755102,197.26938775510206" fill="none" stroke="#3fb950" stroke-width="1.0" opacity="0.2828571428571428" />
    <polyline points="434.6938775510204,197.26938775510206 434.1387755102041,197.40816326530611 433.72244897959183,197.82448979591837 433.58367346938775,198.3795918367347" fill="none" stroke="#3fb950" stroke-width="1.0" opacity="0.2828571428571428" />
    <polyline points="433.58367346938775,226.13469387755103 433.72244897959183,226.68979591836734 434.1387755102041,227.1061224489796 434.6938775510204,227.24489795918367" fill="none" stroke="#3fb950" stroke-width="1.0" opacity="0.2828571428571428" />
    <polyline points="573.469387755102,227.24489795918367 574.0244897959184,227.1061224489796" fill="none" stroke="#3fb950" stroke-width="1.0" opacity="0.2828571428571428" />
    <polyline points="574.4408163265306,226.68979591836734 574.5795918367347,226.13469387755103" fill="none" stroke="#3fb950" stroke-width="1.0" opacity="0.28714285714285714" />
    <polyline points="574.5795918367347,198.3795918367347 574.4408163265306,197.82448979591837 574.0244897959184,197.40816326530611 573.469387755102,197.26938775510206" fill="none" stroke="#3fb950" stroke-width="1.0" opacity="0.28714285714285714" />
    <polyline points="434.6938775510204,197.26938775510206 434.1387755102041,197.40816326530611 433.72244897959183,197.82448979591837 433.58367346938775,198.3795918367347" fill="none" stroke="#3fb950" stroke-width="1.0" opacity="0.28714285714285714" />
    <polyline points="433.58367346938775,226.13469387755103 433.72244897959183,226.68979591836734 434.1387755102041,227.1061224489796 434.6938775510204,227.24489795918367" fill="none" stroke="#3fb950" stroke-width="1.0" opacity="0.28714285714285714" />
    <polyline points="573.469387755102,227.24489795918367 574.0244897959184,227.1061224489796" fill="none" stroke="#3fb950" stroke-width="1.0" opacity="0.28714285714285714" />
    <polyline points="574.4408163265306,226.68979591836734 574.5795918367347,226.13469387755103" fill="none" stroke="#3fb950" stroke-width="1.0" opacity="0.2914285714285714" />
    <polyline points="574.5795918367347,198.3795918367347 574.4408163265306,197.82448979591837 574.0244897959184,197.40816326530611 573.469387755102,197.26938775510206" fill="none" stroke="#3fb950" stroke-width="1.0" opacity="0.2914285714285714" />
    <polyline points="434.6938775510204,197.26938775510206 434.1387755102041,197.40816326530611 433.72244897959183,197.82448979591837 433.58367346938775,198.3795918367347" fill="none" stroke="#3fb950" stroke-width="1.0" opacity="0.2914285714285714" />
    <polyline points="433.58367346938775,226.13469387755103 433.72244897959183,226.68979591836734 434.1387755102041,227.1061224489796 434.6938775510204,227.24489795918367" fill="none" stroke="#3fb950" stroke-width="1.0" opacity="0.2914285714285714" />
    <polyline points="573.469387755102,227.24489795918367 574.0244897959184,227.1061224489796" fill="none" stroke="#3fb950" stroke-width="1.0" opacity="0.2914285714285714" />
    <polyline points="574.4408163265306,226.68979591836734 574.5795918367347,226.13469387755103" fill="none" stroke="#3fb950" stroke-width="1.0" opacity="0.2957142857142857" />
    <polyline points="574.5795918367347,198.3795918367347 574.4408163265306,197.82448979591837 574.0244897959184,197.40816326530611 573.469387755102,197.26938775510206" fill="none" stroke="#3fb950" stroke-width="1.0" opacity="0.2957142857142857" />
    <polyline points="434.6938775510204,197.26938775510206 434.1387755102041,197.40816326530611 433.72244897959183,197.82448979591837 433.58367346938775,198.3795918367347" fill="none" stroke="#3fb950" stroke-width="1.0" opacity="0.2957142857142857" />
    <polyline points="433.58367346938775,226.13469387755103 433.72244897959183,226.68979591836734 434.1387755102041,227.1061224489796 434.6938775510204,227.24489795918367" fill="none" stroke="#3fb950" stroke-width="1.0" opacity="0.2957142857142857" />
    <polyline points="573.469387755102,227.24489795918367 574.0244897959184,227.1061224489796" fill="none" stroke="#3fb950" stroke-width="1.0" opacity="0.2957142857142857" />

  <!-- Dimension annotations -->
  <line x1="87.75510204081633" y1="233.0734693877551" x2="712.2448979591836" y2="233.0734693877551" stroke="#8b92ab" stroke-width="1"/>
  <polygon points="87.75510204081633,232.3795918367347 87.75510204081633,233.76734693877552" fill="#8b92ab"/>
  <polygon points="712.2448979591836,232.3795918367347 712.2448979591836,233.76734693877552" fill="#8b92ab"/>
  <text x="400.0" y="230.9918367346939" fill="#8b92ab" font-size="10" text-anchor="middle">4,500 mm</text>

  <line x1="76.65306122448979" y1="226.13469387755103" x2="76.65306122448979" y2="87.3591836734694" stroke="#8b92ab" stroke-width="1"/>
  <polygon points="77.34693877551021,226.13469387755103 75.95918367346938,226.13469387755103" fill="#8b92ab"/>
  <polygon points="77.34693877551021,87.3591836734694 75.95918367346938,87.3591836734694" fill="#8b92ab"/>
  <text x="80.12244897959184" y="156.74693877551022" fill="#8b92ab" font-size="10" text-anchor="middle" transform="rotate(-90,80.12244897959184,156.74693877551022)">1,000 mm</text>

  <!-- Opening labels -->
  <text x="226.53061224489795" y="209.48163265306124" fill="#f78166" font-size="9" text-anchor="middle">Window</text>
  <text x="504.0816326530612" y="209.48163265306124" fill="#d29922" font-size="9" text-anchor="middle">Door</text>
  <text x="656.734693877551" y="135.93061224489796" fill="#f78166" font-size="9" text-anchor="middle">Window</text>
  <text x="691.4285714285714" y="219.19591836734693" fill="#bc8cff" font-size="9" text-anchor="middle">Column</text>
  
  <!-- Layer count bar (only show a subset) -->
  <text x="766" y="52" fill="#8b92ab" font-size="9" text-anchor="middle">Layers</text>
    <rect x="760" y="60.0" width="12" height="5.571428571428571" fill="#58a6ff" opacity="0.7" rx="1" />
    <rect x="760" y="65.57142857142857" width="12" height="5.571428571428571" fill="#3fb950" opacity="0.7" rx="1" />
    <rect x="760" y="71.14285714285714" width="12" height="5.571428571428571" fill="#d29922" opacity="0.7" rx="1" />
    <rect x="760" y="76.71428571428572" width="12" height="5.571428571428571" fill="#f78166" opacity="0.7" rx="1" />
    <rect x="760" y="82.28571428571428" width="12" height="5.571428571428571" fill="#bc8cff" opacity="0.7" rx="1" />
    <rect x="760" y="87.85714285714286" width="12" height="5.571428571428571" fill="#79c0ff" opacity="0.7" rx="1" />
    <rect x="760" y="93.42857142857143" width="12" height="5.571428571428571" fill="#56d364" opacity="0.7" rx="1" />
    <rect x="760" y="99.0" width="12" height="5.571428571428571" fill="#e3b341" opacity="0.7" rx="1" />
    <rect x="760" y="104.57142857142857" width="12" height="5.571428571428571" fill="#ffa657" opacity="0.7" rx="1" />
    <rect x="760" y="110.14285714285714" width="12" height="5.571428571428571" fill="#d2a8ff" opacity="0.7" rx="1" />
  <text x="766" y="269" fill="#8b92ab" font-size="9" text-anchor="middle">↓</text>

  <!-- Legend -->
  <rect x="60" y="205" width="200" height="40" rx="6" fill="#1a1d27" opacity="0.9"/>
  <line x1="70" y1="220" x2="100" y2="220" stroke="#58a6ff" stroke-width="2.5"/>
  <text x="108" y="224" fill="#8b92ab" font-size="10">Perimeter (contour)</text>
  <line x1="70" y1="237" x2="100" y2="237" stroke="#3fb950" stroke-width="1"/>
  <text x="108" y="241" fill="#8b92ab" font-size="10">Infill (lines, 20%)</text>

  <!-- Stats -->
  <text x="740" y="299" fill="#8b92ab" font-size="10" text-anchor="end">Main wall 4m · Side wall 1m · Column · 2 windows · 1 door</text>
</svg>